<?xml version="1.0" encoding="utf-8"?>
<!-- Generator: Adobe Illustrator 21.0.2, SVG Export Plug-In . SVG Version: 6.00 Build 0)  -->
<svg version="1.1" id="Layer_1" xmlns="http://www.w3.org/2000/svg" xmlns:xlink="http://www.w3.org/1999/xlink" x="0px" y="0px"
	 viewBox="0 0 30 30" style="enable-background:new 0 0 30 30;" xml:space="preserve">
<g>
	<path d="M25,20.8L25,20.8V6.3l0,0v-4c0-0.3-0.2-0.7-0.5-0.8c-0.3-0.2-0.6-0.2-0.9-0.1l-15,6.5C8.2,8,8,8.4,8,8.8v3.5l0,0v9.9
		c-0.5-0.2-1.2-0.3-1.8-0.3c-0.5,0-1,0.1-1.5,0.2c-2.5,0.6-4.1,2.6-3.6,4.4c0.3,1.4,1.9,2.4,3.8,2.4c0.5,0,1-0.1,1.5-0.2
		c2.2-0.6,3.7-2.1,3.7-3.8l0,0v-12l13-5.2v10.4c-0.5-0.2-1.2-0.3-1.8-0.3c-0.5,0-1,0.1-1.5,0.2c-2.5,0.6-4.1,2.6-3.6,4.4
		c0.3,1.4,1.9,2.4,3.8,2.4c0.5,0,1-0.1,1.5-0.2C23.5,24,25,22.4,25,20.8z M10,10.8V9.4l13-5.6v1.8L10,10.8z"/>
</g>
</svg>
