<?xml version="1.0" encoding="utf-8"?>
<!-- Generator: Adobe Illustrator 21.0.2, SVG Export Plug-In . SVG Version: 6.00 Build 0)  -->
<svg version="1.1" id="Laag_1" xmlns="http://www.w3.org/2000/svg" xmlns:xlink="http://www.w3.org/1999/xlink" x="0px" y="0px"
	 viewBox="0 0 500 500" style="enable-background:new 0 0 500 500;" xml:space="preserve">
<style type="text/css">
	.st0{opacity:0.15;}
	.st1{fill:#CECECE;}
	.st2{fill:#6C94B7;}
	.st3{fill:#A8CBE5;}
	.st4{fill:#3A445E;}
	.st5{fill:#EFEFEF;}
	.st6{opacity:0.41;fill:none;stroke:#3A445E;stroke-miterlimit:10;enable-background:new    ;}
</style>
<title>wcborstel</title>
<g id="Layer_2">
	<g class="st0">
		<path d="M253.5,481.8c0,0-10,1-10-18v-96l3-19l0.5-5.5v-194h-8v-7h2l-2-12h37l-2,12h2v6h-10v200l3,18v98c0,0,2,17-11,18
			L253.5,481.8z"/>
		<path d="M240.6,130.3c0,0-3.1-74.5,18.9-74.5s14.9,74.5,14.9,74.5H240.6z"/>
		<path d="M243.5,373.6c0,0,9,8.9,25.5,0c0,0,2.4,73.1-1.5,100.1c-1,7-6,7.2-10,8c-5,1-8.8-1.9-11-5
			C240.2,467.8,243.5,445.8,243.5,373.6z"/>
	</g>
	<path class="st1" d="M204,106.8h95c3.6,0,6.5,2.9,6.5,6.5l0,0c0,3.6-2.9,6.5-6.5,6.5h-95c-3.6,0-6.5-2.9-6.5-6.5l0,0
		C197.5,109.7,200.4,106.8,204,106.8z"/>
	<path class="st1" d="M204,87.8h95c3.6,0,6.5,2.9,6.5,6.5l0,0c0,3.6-2.9,6.5-6.5,6.5h-95c-3.6,0-6.5-2.9-6.5-6.5l0,0
		C197.5,90.7,200.4,87.8,204,87.8z"/>
	<path class="st1" d="M255.9,87.5l49-11.4c3.6-0.8,5.9-3.7,5.3-6.4s-4-4.2-7.6-3.4l-49,11.4L255.9,87.5z"/>
	<path class="st1" d="M258.8,85L296,51.1c2.7-2.5,3.4-6.1,1.5-8.2c-1.9-2-5.6-1.7-8.3,0.8l-37.1,33.9L258.8,85z"/>
	<path class="st1" d="M252.8,80l21.6-45.4c1.6-3.3,0.8-6.9-1.7-8.1c-2.5-1.2-5.8,0.5-7.4,3.8l-21.6,45.4L252.8,80z"/>
	<path class="st1" d="M258.7,80.3l-16.9-47.4c-1.2-3.4-4.3-5.5-6.9-4.5c-2.6,0.9-3.7,4.5-2.5,7.9l16.9,47.4L258.7,80.3z"/>
	<path class="st1" d="M259.7,79.3l-38.9-31.8c-2.8-2.3-6.5-2.4-8.3-0.3c-1.8,2.1-0.9,5.7,1.9,8l39,31.8L259.7,79.3z"/>
	<path class="st1" d="M256.3,77.3l-49.1-10.7c-3.6-0.8-6.9,0.8-7.5,3.5s1.8,5.5,5.4,6.3l49.1,10.7L256.3,77.3z"/>
</g>
<g id="Layer_1">
	<path class="st2" d="M247.5,479.8c0,0-10,1-10-18v-96l3-19l0.5-5.5v-194h-8v-7h2l-2-12h37l-2,12h2v6h-10v200l3,18v98
		c0,0,2,17-11,18L247.5,479.8z"/>
	<path class="st3" d="M234.6,128.3c0,0-3.1-74.5,18.9-74.5s14.9,74.5,14.9,74.5H234.6z"/>
	<rect x="232.5" y="139.8" class="st3" width="38" height="7"/>
	<path class="st4" d="M237.5,371.6c0,0,9,8.9,25.5,0c0,0,2.4,73.1-1.5,100.1c-1,7-6,7.2-10,8c-5,1-8.8-1.9-11-5
		C234.2,465.8,237.5,443.8,237.5,371.6z"/>
	<path class="st5" d="M200,116.8h105c3.6,0,6.5,2.9,6.5,6.5l0,0c0,3.6-2.9,6.5-6.5,6.5H200c-3.6,0-6.5-2.9-6.5-6.5l0,0
		C193.5,119.7,196.4,116.8,200,116.8z"/>
	<path class="st5" d="M200,97.8h105c3.6,0,6.5,2.9,6.5,6.5l0,0c0,3.6-2.9,6.5-6.5,6.5H200c-3.6,0-6.5-2.9-6.5-6.5l0,0
		C193.5,100.7,196.4,97.8,200,97.8z"/>
	<path class="st5" d="M200,78.8h105c3.6,0,6.5,2.9,6.5,6.5l0,0c0,3.6-2.9,6.5-6.5,6.5H200c-3.6,0-6.5-2.9-6.5-6.5l0,0
		C193.5,81.7,196.4,78.8,200,78.8z"/>
	<path class="st5" d="M254.1,72.1l-43.8-19.2c-3.2-1.4-6.6-0.5-7.8,2s0.6,5.7,3.7,7.1l43.8,19.3L254.1,72.1z"/>
	<path class="st5" d="M254.6,80.8l47.1-17.7c3.4-1.3,5.4-4.4,4.4-7c-1-2.6-4.5-3.6-7.9-2.3l-47.1,17.7L254.6,80.8z"/>
	<path class="st5" d="M256.1,73.8l-31-38.6c-2.3-2.8-5.8-3.7-8-1.9c-2.2,1.7-2.1,5.4,0.2,8.2l31,38.6L256.1,73.8z"/>
	<path class="st5" d="M252.8,81.2l33.9-37.3c2.5-2.7,2.8-6.4,0.8-8.3s-5.7-1.2-8.1,1.5l-34,37.3L252.8,81.2z"/>
	<path class="st5" d="M257.5,71.6l-2.2-47.8c-0.2-3.5-2.5-6.2-5.3-6c-2.8,0.2-4.9,3.1-4.7,6.5l2.2,47.8L257.5,71.6z"/>
	<line class="st6" x1="247" y1="153.8" x2="248" y2="342.3"/>
	<line class="st6" x1="253" y1="153.8" x2="254" y2="342.3"/>
</g>
</svg>
