<?xml version="1.0" encoding="utf-8"?>
<!-- Generator: Adobe Illustrator 21.0.2, SVG Export Plug-In . SVG Version: 6.00 Build 0)  -->
<svg version="1.1" xmlns="http://www.w3.org/2000/svg" xmlns:xlink="http://www.w3.org/1999/xlink" x="0px" y="0px"
	 viewBox="0 0 500 500" style="enable-background:new 0 0 500 500;" xml:space="preserve">
<style type="text/css">
	.st0{opacity:0.15;}
	.st1{fill:#CECECE;}
	.st2{fill:#6C94B7;}
	.st3{fill:#A8CBE5;}
	.st4{fill:#3A445E;}
	.st5{fill:#EFEFEF;}
	.st6{opacity:0.41;fill:none;stroke:#3A445E;stroke-miterlimit:10;enable-background:new    ;}
</style>
<g id="Laag_1">
	<title>wcborstel</title>
	<g id="Layer_2">
		<g class="st0">
			<path d="M91.4,413.6c0,0-7.8-6.4,5.7-19.8l67.9-67.9l15.6-11.3l4.2-3.5l137.2-137.2l-5.7-5.7l4.9-4.9l1.4,1.4l7.1-9.9l26.2,26.2
				l-9.9,7.1l1.4,1.4l-4.2,4.2l-7.1-7.1L194.6,328L184,342.9l-69.3,69.3c0,0-10.6,13.4-20.5,4.9L91.4,413.6z"/>
			<path d="M330.8,155.9c0,0,50.5-54.9,66-39.3c15.6,15.6-42.2,63.2-42.2,63.2L330.8,155.9z"/>
			<path d="M160.7,330.1c0,0,0.1,12.6,18,18c0,0-50,53.4-71.8,69.7c-5.7,4.2-9.3,0.8-12.7-1.4c-4.2-2.8-4.9-7.6-4.2-11.3
				C91.8,394.3,109.7,381.1,160.7,330.1z"/>
		</g>
		<path class="st1" d="M321.5,113.4l67.2,67.2c2.5,2.5,2.5,6.7,0,9.2l0,0c-2.5,2.5-6.7,2.5-9.2,0l-67.2-67.2c-2.5-2.5-2.5-6.7,0-9.2
			l0,0C314.9,110.9,319,110.9,321.5,113.4z"/>
		<path class="st1" d="M334.9,100l67.2,67.2c2.5,2.5,2.5,6.7,0,9.2l0,0c-2.5,2.5-6.7,2.5-9.2,0l-67.2-67.2c-2.5-2.5-2.5-6.7,0-9.2
			l0,0C328.3,97.4,332.4,97.4,334.9,100z"/>
		<path class="st1" d="M371.9,136.5l42.7,26.6c3.1,1.9,6.8,1.6,8.2-0.8c1.5-2.3,0.1-5.8-3-7.7L377.1,128L371.9,136.5z"/>
		<path class="st1" d="M375.6,136.8l50.2,2.3c3.6,0.2,6.7-1.9,6.8-4.7c0.1-2.8-2.7-5.1-6.4-5.3l-50.2-2.3L375.6,136.8z"/>
		<path class="st1" d="M374.9,129l47.4-16.8c3.4-1.2,5.5-4.3,4.6-6.9c-0.9-2.6-4.5-3.7-7.9-2.5l-47.4,16.8L374.9,129z"/>
		<path class="st1" d="M378.9,133.4L400.5,88c1.6-3.3,0.8-6.9-1.7-8.1c-2.5-1.2-5.8,0.5-7.3,3.8l-21.6,45.4L378.9,133.4z"/>
		<path class="st1" d="M380.3,133.4l-5-50c-0.4-3.6-2.9-6.3-5.6-6.1s-4.7,3.4-4.3,7l5.1,50.1L380.3,133.4z"/>
		<path class="st1" d="M379.3,129.6l-27.2-42.3c-2-3.1-5.5-4.3-7.8-2.9s-2.6,5.2-0.6,8.3l27.2,42.3L379.3,129.6z"/>
	</g>
	<g id="Layer_1">
		<path class="st2" d="M86.5,408.9c0,0-7.8-6.4,5.7-19.8l67.9-67.9l15.6-11.3l4.2-3.5L317,169.2l-5.7-5.7l4.9-4.9l1.4,1.4l7.1-9.9
			l26.2,26.2l-9.9,7.1l1.4,1.4l-4.2,4.2l-7.1-7.1L189.8,323.4l-10.6,14.8l-69.3,69.3c0,0-10.6,13.4-20.5,4.9L86.5,408.9z"/>
		<path class="st3" d="M326,151.3c0,0,50.5-54.9,66-39.3c15.6,15.6-42.2,63.2-42.2,63.2L326,151.3z"/>
		
			<rect x="323.8" y="154.8" transform="matrix(0.7071 -0.7071 0.7071 0.7071 -27.0446 282.3394)" class="st3" width="7" height="38"/>
		<path class="st4" d="M155.9,325.4c0,0,0.1,12.6,18,18c0,0-50,53.4-71.8,69.7c-5.7,4.2-9.3,0.8-12.7-1.4c-4.2-2.8-4.9-7.6-4.2-11.3
			C87,389.7,104.9,376.4,155.9,325.4z"/>
		<path class="st5" d="M309.6,118.7l74.2,74.2c2.5,2.5,2.5,6.7,0,9.2l0,0c-2.5,2.5-6.7,2.5-9.2,0l-74.2-74.2c-2.5-2.5-2.5-6.7,0-9.2
			l0,0C303,116.1,307.1,116.1,309.6,118.7z"/>
		<path class="st5" d="M323,105.2l74.2,74.2c2.5,2.5,2.5,6.7,0,9.2l0,0c-2.5,2.5-6.7,2.5-9.2,0l-74.2-74.2c-2.5-2.5-2.5-6.7,0-9.2
			l0,0C316.4,102.7,320.5,102.7,323,105.2z"/>
		<path class="st5" d="M336.5,91.8l74.2,74.2c2.5,2.5,2.5,6.7,0,9.2l0,0c-2.5,2.5-6.7,2.5-9.2,0L327.3,101c-2.5-2.5-2.5-6.7,0-9.2
			l0,0C329.8,89.3,333.9,89.3,336.5,91.8z"/>
		<path class="st5" d="M379.4,125.3l-17.4-44.6c-1.3-3.2-4.4-5-6.9-4.1c-2.5,1-3.6,4.4-2.4,7.7l17.3,44.6L379.4,125.3z"/>
		<path class="st5" d="M373.6,131.9l45.8,20.8c3.3,1.5,6.9,0.7,8.1-1.8c1.1-2.5-0.6-5.8-4-7.3l-45.8-20.8L373.6,131.9z"/>
		<path class="st5" d="M379.7,127.9l5.4-49.2c0.4-3.6-1.5-6.7-4.3-7c-2.8-0.3-5.3,2.3-5.7,5.9l-5.4,49.2L379.7,127.9z"/>
		<path class="st5" d="M372.1,130.8l50.3-2.3c3.6-0.2,6.5-2.5,6.4-5.3c-0.1-2.8-3.2-4.9-6.8-4.7l-50.4,2.3L372.1,130.8z"/>
		<path class="st5" d="M382.2,127.4l32.2-35.3c2.3-2.6,2.6-6.2,0.5-8s-5.6-1.3-7.9,1.3l-32.2,35.4L382.2,127.4z"/>
		<line class="st6" x1="316.7" y1="178.1" x2="184.1" y2="312.1"/>
		<line class="st6" x1="320.9" y1="182.3" x2="188.3" y2="316.3"/>
	</g>
</g>
<g id="Laag_1_kopie">
	<title>wcborstel</title>
	<g id="Layer_2_1_">
		<g class="st0">
			<path d="M418.1,417.2c0,0-6.4,7.8-19.8-5.7l-67.9-67.9l-11.3-15.6l-3.5-4.2L178.4,186.7l-5.7,5.7l-4.9-4.9l1.4-1.4l-9.9-7.1
				l26.2-26.2l7.1,9.9l1.4-1.4l4.2,4.2l-7.1,7.1l141.4,141.4l14.8,10.6l69.3,69.3c0,0,13.4,10.6,4.9,20.5L418.1,417.2z"/>
			<path d="M160.4,177.7c0,0-54.9-50.5-39.3-66s63.2,42.2,63.2,42.2L160.4,177.7z"/>
			<path d="M334.5,347.8c0,0,12.6-0.1,18-18c0,0,53.4,50,69.7,71.8c4.2,5.7,0.8,9.3-1.4,12.7c-2.8,4.2-7.6,4.9-11.3,4.2
				C398.8,416.7,385.5,398.8,334.5,347.8z"/>
		</g>
		<path class="st1" d="M117.9,187l67.2-67.2c2.5-2.5,6.7-2.5,9.2,0l0,0c2.5,2.5,2.5,6.7,0,9.2l-67.2,67.2c-2.5,2.5-6.7,2.5-9.2,0
			l0,0C115.4,193.7,115.4,189.5,117.9,187z"/>
		<path class="st1" d="M104.5,173.6l67.2-67.2c2.5-2.5,6.7-2.5,9.2,0l0,0c2.5,2.5,2.5,6.7,0,9.2l-67.2,67.2c-2.5,2.5-6.7,2.5-9.2,0
			l0,0C101.9,180.2,101.9,176.1,104.5,173.6z"/>
		<path class="st1" d="M141,136.7L167.6,94c1.9-3.1,1.6-6.8-0.8-8.2s-5.8-0.1-7.7,3l-26.6,42.7L141,136.7z"/>
		<path class="st1" d="M141.3,132.9l2.3-50.2c0.2-3.6-1.9-6.7-4.7-6.8c-2.8-0.1-5.1,2.7-5.3,6.4l-2.3,50.2L141.3,132.9z"/>
		<path class="st1" d="M133.5,133.6l-16.8-47.4c-1.2-3.4-4.3-5.5-6.9-4.6s-3.7,4.5-2.5,7.9l16.8,47.4L133.5,133.6z"/>
		<path class="st1" d="M137.9,129.6L92.5,108c-3.3-1.6-6.9-0.8-8.1,1.7s0.5,5.8,3.8,7.3l45.4,21.6L137.9,129.6z"/>
		<path class="st1" d="M137.8,128.2l-50,5c-3.6,0.4-6.3,2.9-6.1,5.6c0.3,2.8,3.4,4.7,7,4.3l50.1-5.1L137.8,128.2z"/>
		<path class="st1" d="M134.1,129.2l-42.3,27.2c-3.1,2-4.3,5.5-2.9,7.8c1.5,2.3,5.2,2.6,8.3,0.6l42.3-27.2L134.1,129.2z"/>
	</g>
	<g id="Layer_1_1_">
		<path class="st2" d="M411.4,416c0,0-6.4,7.8-19.8-5.7l-67.9-67.9l-11.3-15.6l-3.5-4.2L171.7,185.5l-5.7,5.7l-4.9-4.9l1.4-1.4
			l-9.9-7.1l26.2-26.2l7.1,9.9l1.4-1.4l4.2,4.2l-7.1,7.1l141.4,141.4l14.8,10.6l69.3,69.3c0,0,13.4,10.6,4.9,20.5L411.4,416z"/>
		<path class="st3" d="M153.7,176.6c0,0-54.9-50.5-39.3-66s63.2,42.2,63.2,42.2L153.7,176.6z"/>
		
			<rect x="157.3" y="171.7" transform="matrix(0.7071 -0.7071 0.7071 0.7071 -72.2707 175.9825)" class="st3" width="38" height="7"/>
		<path class="st4" d="M327.9,346.6c0,0,12.6-0.1,18-18c0,0,53.4,50,69.7,71.8c4.2,5.7,0.8,9.3-1.4,12.7c-2.8,4.2-7.6,4.9-11.3,4.2
			C392.2,415.5,378.9,397.6,327.9,346.6z"/>
		<path class="st5" d="M121.1,192.9l74.2-74.2c2.5-2.5,6.7-2.5,9.2,0l0,0c2.5,2.5,2.5,6.7,0,9.2l-74.2,74.2c-2.5,2.5-6.7,2.5-9.2,0
			l0,0C118.6,199.6,118.6,195.4,121.1,192.9z"/>
		<path class="st5" d="M107.7,179.5l74.2-74.2c2.5-2.5,6.7-2.5,9.2,0l0,0c2.5,2.5,2.5,6.7,0,9.2l-74.2,74.2c-2.5,2.5-6.7,2.5-9.2,0
			l0,0C105.2,186.1,105.2,182,107.7,179.5z"/>
		<path class="st5" d="M94.3,166l74.2-74.2c2.5-2.5,6.7-2.5,9.2,0l0,0c2.5,2.5,2.5,6.7,0,9.2l-74.2,74.2c-2.5,2.5-6.7,2.5-9.2,0l0,0
			C91.7,172.7,91.7,168.6,94.3,166z"/>
		<path class="st5" d="M127.8,123.1l-44.6,17.4c-3.2,1.3-5,4.4-4.1,6.9s4.4,3.6,7.7,2.4l44.6-17.3L127.8,123.1z"/>
		<path class="st5" d="M134.4,128.9l20.8-45.8c1.5-3.3,0.7-6.9-1.8-8.1c-2.5-1.1-5.8,0.6-7.3,4l-20.8,45.8L134.4,128.9z"/>
		<path class="st5" d="M130.4,122.8l-49.2-5.4c-3.6-0.4-6.7,1.5-7,4.3s2.3,5.3,5.9,5.7l49.2,5.4L130.4,122.8z"/>
		<path class="st5" d="M133.3,130.4l-2.3-50.3c-0.2-3.6-2.5-6.5-5.3-6.4c-2.8,0.1-4.9,3.2-4.7,6.8l2.3,50.4L133.3,130.4z"/>
		<path class="st5" d="M129.9,120.3L94.5,88.1c-2.6-2.3-6.2-2.6-8-0.5s-1.3,5.6,1.3,7.9l35.4,32.2L129.9,120.3z"/>
		<line class="st6" x1="180.5" y1="185.8" x2="314.5" y2="318.4"/>
		<line class="st6" x1="184.8" y1="181.6" x2="318.8" y2="314.2"/>
	</g>
</g>
</svg>
