<svg xmlns="http://www.w3.org/2000/svg" viewBox="0 0 512 560.66">
  <defs>
    <style>
      .cls-1 {
        stroke: #fff;
        opacity: 0.07;
      }

      .cls-1, .cls-15, .cls-20 {
        stroke-miterlimit: 10;
      }

      .cls-2 {
        fill: #d9dbda;
      }

      .cls-3 {
        fill: #c4c3b5;
      }

      .cls-4 {
        fill: #5d7f6e;
      }

      .cls-5 {
        fill: #f9f9f9;
      }

      .cls-6 {
        opacity: 0.52;
      }

      .cls-7 {
        opacity: 0.19;
      }

      .cls-8 {
        fill: #d8d8d8;
      }

      .cls-9 {
        fill: #cecece;
      }

      .cls-10 {
        fill: #e0e0e0;
      }

      .cls-11 {
        opacity: 0.22;
      }

      .cls-12 {
        fill: #6e9683;
      }

      .cls-13 {
        opacity: 0.27;
      }

      .cls-14 {
        fill: #83aa97;
      }

      .cls-15, .cls-20 {
        fill: none;
      }

      .cls-15 {
        stroke: #426051;
        stroke-width: 2px;
      }

      .cls-16 {
        fill: #b4b5b4;
      }

      .cls-17 {
        fill: #eaeaea;
      }

      .cls-18 {
        fill: #627c6d;
      }

      .cls-19 {
        fill: #739181;
      }

      .cls-20 {
        stroke: #4c6357;
        stroke-width: 3px;
      }

      .cls-21 {
        opacity: 0.29;
      }

      .cls-22 {
        fill: #ddd;
      }
    </style>
  </defs>
  <title>wckot</title>
  <g id="Layer_2" data-name="Layer 2">
    <ellipse class="cls-1" cx="256" cy="516.66" rx="255.5" ry="43.5"/>
  </g>
  <g id="Layer_1" data-name="Layer 1">
    <rect class="cls-2" x="275.23" y="5.4" width="179.74" height="448.03"/>
    <rect class="cls-3" x="275.23" y="95.66" width="177.99" height="357.77"/>
    <polygon class="cls-4" points="275.23 481.37 330 432.77 330 117.26 279.86 54 275.23 481.37"/>
    <g>
      <path class="cls-5" d="M381.28,438.86s-8.42,3.3-8.42-25.85c0,0-27.06-.61-31.26-37h74.85s.82,31.23-21.05,35.44C395.4,411.47,398.11,445.17,381.28,438.86Z"/>
      <g class="cls-6">
        <path class="cls-7" d="M373,413.71s21.14.2,22.55-2.21c0,0-11,6-22.55,4.91Z"/>
      </g>
      <path class="cls-8" d="M343,376.13s-19.45-1.05,13-11.78h59.58s14,8.21-7.1,11.78S343,376.13,343,376.13Z"/>
      <path class="cls-9" d="M379.77,372.93h-19s-5.62-2.22,2-3.22,39.28-1.2,39.28-1.2S406.43,373,379.77,372.93Z"/>
      <path class="cls-5" d="M360.79,364.35s-24-75.29,16.65-87.72,42.32,34.67,42.32,34.67,3.18,51.19-11.29,53.05S360.79,364.35,360.79,364.35Z"/>
    </g>
    <polygon class="cls-10" points="462.43 515.66 421.31 515.66 416.14 388.8 462.43 374.74 462.43 515.66"/>
    <rect class="cls-11" x="416.14" y="381.41" width="46.29" height="12.54"/>
    <path class="cls-10" d="M411.69,390.86s-1.38-11,21.51-18.35l13.8,1.18,1.11,6S429.09,389.78,411.69,390.86Z"/>
    <polygon class="cls-12" points="20.66 481.37 20.66 0.77 466.54 0.77 466.54 486 432.6 486 432.6 7.71 279.09 7.71 279.09 486 20.66 486 20.66 481.37"/>
    <rect class="cls-13" x="20.66" width="445.89" height="16.97"/>
    <rect class="cls-12" x="21.69" width="444.86" height="8.49"/>
    <polygon class="cls-14" points="271.37 483.77 271.37 22.18 108.6 16.97 108.6 486 271.37 483.77"/>
    <rect class="cls-11" x="52.52" y="47.06" width="18" height="17.23"/>
    <rect class="cls-14" x="50.74" y="45.26" width="18" height="17.23"/>
    <rect class="cls-11" x="51.63" y="243" width="18" height="17.23"/>
    <rect class="cls-14" x="49.85" y="241.2" width="18" height="17.23"/>
    <rect class="cls-11" x="51.63" y="438" width="18" height="17.23"/>
    <rect class="cls-14" x="49.85" y="436.2" width="18" height="17.23"/>
    <line class="cls-15" x1="62.31" y1="486" x2="60.73" y2="0.77"/>
    <path class="cls-16" d="M41,522.77l5.4-12.86V471.6H56.66v37.54s4.59,6.17,4.86,9.77S55.37,523,41,522.77Z"/>
    <rect class="cls-17" x="46.63" y="471.6" width="10.03" height="14.4"/>
    <path class="cls-16" d="M223.46,486v25.2s-4.46,9.26-4.8,13,17.48-1.4,17.48-1.4l-4.45-10.6L232,486h-8.57"/>
    <path class="cls-16" d="M261.51,486v25.2s-7.2,13-5.14,14.41,18.86,1,18.86-2.78-3.86-10.26-3.86-10.26L269.06,486h-7.55"/>
    <path class="cls-16" d="M441.51,473.49v38.74s-3.77,9.61-3.42,13.38,15.08.71,15.08.71.69-11-3.08-15.12V473.49Z"/>
    <rect class="cls-17" x="441.51" y="473.49" width="8.57" height="14.74"/>
    <ellipse class="cls-18" cx="139.24" cy="244.41" rx="6.94" ry="9.26"/>
    <ellipse class="cls-19" cx="136.03" cy="243" rx="6.3" ry="7.46"/>
    <ellipse class="cls-19" cx="119.19" cy="244.21" rx="6.39" ry="8.04"/>
    <line class="cls-20" x1="119.19" y1="253.46" x2="119.19" y2="234.43"/>
    <path class="cls-10" d="M416.14,396.39"/>
    <rect class="cls-14" x="271.37" y="433.03" width="6.27" height="25.2"/>
    <rect class="cls-14" x="271.37" y="234.43" width="6.27" height="24"/>
    <rect class="cls-14" x="271.37" y="36.34" width="6.27" height="21.26"/>
    <rect class="cls-21" x="369.6" y="238.26" width="40.11" height="29.14" rx="3.66"/>
    <rect class="cls-5" x="367.6" y="236.26" width="40.11" height="29.14" rx="3.66"/>
    <path class="cls-17" d="M389.37,259.4s-33.26-2.57-6.51-16.71c0,0,4.8-.6,6.51.77S392.8,258.54,389.37,259.4Z"/>
    <path class="cls-17" d="M401.37,251.82s-3.72,6.94-9.08,6.86c0,0,1.37-14.23-1.55-15.09S401.54,243.08,401.37,251.82Z"/>
    <path class="cls-5" d="M284.23,305s33.17,1,33.43-6.17l1.8-64.37s2.31-14.06-35.23-14.83Z"/>
    <path class="cls-17" d="M300.94,267.69s-2.83,1.41-2.57-4.38,0-20.75,0-20.75.54-2.9,2.59-2.52,3.47,1.33,3.35,3.24,0,22.12,0,22.12A2.58,2.58,0,0,1,300.94,267.69Z"/>
    <ellipse class="cls-22" cx="301.32" cy="243.69" rx="2.97" ry="3.68"/>
    <circle class="cls-22" cx="301.51" cy="264.32" r="3.08"/>
    <path class="cls-10" d="M304.59,350.74l10,1.29s-5.87-49.67-3.06-49-6.92,1.21-6.92,1.21Z"/>
  </g>
</svg>
