<?xml version="1.0" encoding="utf-8"?>
<!-- Generator: Adobe Illustrator 21.0.2, SVG Export Plug-In . SVG Version: 6.00 Build 0)  -->
<svg version="1.1" id="Layer_1" xmlns="http://www.w3.org/2000/svg" xmlns:xlink="http://www.w3.org/1999/xlink" x="0px" y="0px"
	 viewBox="0 0 30 30" style="enable-background:new 0 0 30 30;" xml:space="preserve">
<style type="text/css">
	.st0{fill:#0C426D;}
</style>
<g>
	<path class="st0" d="M18.6,4.2c-0.4-0.3-0.8-0.6-1-0.9L17,1.7l0,0c0,0,0-0.1-0.1-0.1V1.5l0,0c-0.1-0.1-0.1-0.1-0.2-0.2l0,0
		c0,0,0,0-0.1,0s-0.1-0.1-0.2-0.1l0,0c0,0,0,0-0.1,0s-0.1,0-0.2,0l0,0l0,0l0,0c0,0,0,0-0.1,0h-0.1c-0.1,0-0.1,0-0.1,0.1l0,0
		c0,0-0.1,0-0.1,0.1c-0.1,0-0.1,0.1-0.2,0.1l0,0c0,0,0,0.1-0.1,0.1c0,0.1-0.1,0.1-0.1,0.2l0,0v0.1c0,0.1,0,0.2,0,0.2l0,0l0,0v5v14.5
		c-0.6-0.3-1.4-0.5-2.2-0.5c-0.6,0-1.1,0.1-1.7,0.2c-2.7,0.7-4.5,2.9-4,5.1c0.4,1.6,2,2.7,4.2,2.7l0,0c0.6,0,1.1-0.1,1.7-0.2
		c2.5-0.7,4.2-2.6,4.1-4.6c0-0.1,0-0.1,0-0.2V10.5c0.1,0.1,0.3,0.2,0.4,0.3c2.2,1.6,2.6,2.3,2.6,4.5l-0.9,2.3
		c-0.2,0.5,0,1.1,0.5,1.3C19.7,19,19.9,19,20,19c0.4,0,0.8-0.2,0.9-0.6l1-2.4C24.1,11.3,22.9,7.1,18.6,4.2z"/>
</g>
</svg>
