<?xml version="1.0" encoding="iso-8859-1"?>
<!-- Generator: Adobe Illustrator 19.2.1, SVG Export Plug-In . SVG Version: 6.00 Build 0)  -->
<svg version="1.1" xmlns="http://www.w3.org/2000/svg" xmlns:xlink="http://www.w3.org/1999/xlink" x="0px" y="0px"
	 viewBox="0 0 30 30" style="enable-background:new 0 0 30 30;" xml:space="preserve">
<g id="Mail">
	<g>
		<path d="M28.5,25h-27C0.673,25,0,24.327,0,23.5v-17C0,5.673,0.673,5,1.5,5h27C29.327,5,30,5.673,30,6.5v17
			C30,24.327,29.327,25,28.5,25z M1.5,6C1.224,6,1,6.224,1,6.5v17C1,23.776,1.224,24,1.5,24h27c0.276,0,0.5-0.224,0.5-0.5v-17
			C29,6.224,28.776,6,28.5,6H1.5z"/>
	</g>
	<g>
		<path d="M15.002,16.152c-0.636,0-1.274-0.203-1.821-0.612l-0.201-0.144L0.542,6.151c-0.222-0.165-0.268-0.478-0.103-0.7
			c0.166-0.22,0.478-0.267,0.7-0.103l12.632,9.385c0.739,0.55,1.715,0.553,2.438,0.008l0.222-0.158l12.432-9.234
			c0.222-0.165,0.534-0.118,0.7,0.103c0.165,0.222,0.119,0.535-0.103,0.7L16.8,15.547C16.267,15.95,15.636,16.152,15.002,16.152z"/>
	</g>
	<g>
		<path d="M0.851,24.76c-0.152,0-0.303-0.069-0.401-0.201c-0.165-0.221-0.12-0.534,0.102-0.7l12.42-9.27
			c0.221-0.165,0.535-0.12,0.7,0.102c0.165,0.221,0.12,0.534-0.102,0.7l-12.42,9.27C1.06,24.728,0.955,24.76,0.851,24.76z"/>
	</g>
	<g>
		<path d="M29.149,24.76c-0.104,0-0.208-0.032-0.298-0.099l-12.43-9.27c-0.222-0.165-0.267-0.479-0.102-0.7
			c0.166-0.222,0.479-0.267,0.7-0.102l12.43,9.27c0.222,0.165,0.267,0.479,0.102,0.7C29.453,24.69,29.302,24.76,29.149,24.76z"/>
	</g>
</g>
<g id="Open_Mail">
</g>
<g id="Mail_Attachmet">
</g>
<g id="Mails">
</g>
<g id="Trash">
</g>
<g id="Trash_Full">
</g>
<g id="Preferences_1">
</g>
<g id="Preferences_2">
</g>
<g id="Mouse">
</g>
<g id="Computer">
</g>
<g id="Notebook">
</g>
<g id="Mobile_Phone">
</g>
<g id="Print">
</g>
<g id="Calculator">
</g>
<g id="Tag">
</g>
<g id="Paperclip">
</g>
<g id="Heart">
</g>
<g id="Lock">
</g>
<g id="Lock_Open">
</g>
<g id="Key_1">
</g>
<g id="Star">
</g>
<g id="Add">
</g>
<g id="Remove">
</g>
<g id="Error">
</g>
<g id="Check_1">
</g>
<g id="Time">
</g>
<g id="Question_Mark">
</g>
<g id="Error_Mark">
</g>
<g id="Sand-Glass">
</g>
<g id="Battery_Full">
</g>
<g id="Battery_Charge">
</g>
<g id="Battery_Half">
</g>
<g id="Battery_Low">
</g>
<g id="No_Battery">
</g>
<g id="Key_2">
</g>
<g id="Link">
</g>
<g id="Brake_Link">
</g>
<g id="Pencil">
</g>
<g id="At">
</g>
<g id="Reply">
</g>
<g id="Accessible">
</g>
<g id="Up_Arrow">
</g>
<g id="Brush">
</g>
<g id="Design_Mug">
</g>
<g id="Design">
</g>
<g id="Server">
</g>
<g id="Database">
</g>
<g id="Save">
</g>
<g id="Female">
</g>
<g id="Male">
</g>
<g id="Book">
</g>
<g id="Power">
</g>
<g id="Reload">
</g>
<g id="Map">
</g>
<g id="Loction_1">
</g>
<g id="Location_2">
</g>
<g id="Globe">
</g>
<g id="Suitcase">
</g>
<g id="Callendar">
</g>
<g id="Cloud_Off">
</g>
<g id="File_1">
</g>
<g id="File_2">
</g>
<g id="Folder">
</g>
<g id="Open_Folder">
</g>
<g id="Cloud">
</g>
<g id="Upload_Cloud">
</g>
<g id="Download_Cloud">
</g>
<g id="Eye">
</g>
<g id="Invisible">
</g>
<g id="Assignment">
</g>
<g id="Note_Book">
</g>
<g id="Webpage">
</g>
<g id="Mailbox">
</g>
<g id="Drive">
</g>
<g id="Disc">
</g>
<g id="Wifi_1">
</g>
<g id="Wifi_2">
</g>
<g id="Archive">
</g>
<g id="Archive_File">
</g>
<g id="News">
</g>
<g id="Home">
</g>
<g id="Collaboration">
</g>
<g id="Announcement">
</g>
<g id="Watch">
</g>
<g id="Clock">
</g>
<g id="Volume">
</g>
<g id="Mute">
</g>
<g id="Hand">
</g>
<g id="Layers">
</g>
<g id="Bell">
</g>
<g id="Speach_Bubble">
</g>
<g id="Speach_Bubbles">
</g>
<g id="Zoom_In">
</g>
<g id="Zoom_Out">
</g>
<g id="Search">
</g>
<g id="Back_Arrow">
</g>
<g id="Close">
</g>
<g id="Check_2">
</g>
<g id="Left_Arrow_2">
</g>
<g id="Right_Arrow_2">
</g>
</svg>
