<?xml version="1.0" encoding="utf-8"?>
<!-- Generator: Adobe Illustrator 21.0.2, SVG Export Plug-In . SVG Version: 6.00 Build 0)  -->
<svg version="1.1" id="Layer_1" xmlns="http://www.w3.org/2000/svg" xmlns:xlink="http://www.w3.org/1999/xlink" x="0px" y="0px"
	 viewBox="0 0 30 30" style="enable-background:new 0 0 30 30;" xml:space="preserve">
<path d="M23,20.8V6.3l0,0v-4c0-0.2-0.1-0.3-0.2-0.4c-0.1-0.1-0.3-0.1-0.5,0l-15,6.5C7.1,8.5,7,8.7,7,8.9v14.2
	c-0.1,0-0.1-0.1-0.2-0.1c-0.9-0.5-2.2-0.7-3.5-0.4c-2.2,0.6-3.6,2.2-3.2,3.8c0.1,0.6,0.5,1.1,1.1,1.5s1.3,0.5,2.1,0.5
	c0.4,0,0.9-0.1,1.4-0.2c2-0.5,3.3-1.9,3.3-3.3l0,0V12.7l14-5.6V19c-0.1,0-0.1-0.1-0.2-0.1c-0.9-0.5-2.2-0.7-3.5-0.4
	c-2.2,0.6-3.6,2.2-3.2,3.8c0.1,0.6,0.5,1.1,1.1,1.5s1.3,0.5,2.1,0.5c0.4,0,0.9-0.1,1.4-0.2C21.7,23.6,23,22.2,23,20.8L23,20.8z
	 M4.5,27.1c-1,0.3-2,0.2-2.7-0.3c-0.3-0.2-0.6-0.4-0.7-0.9c-0.2-1,0.9-2.2,2.5-2.6c1-0.3,2-0.2,2.7,0.3C6.6,23.8,6.9,24,7,24.5
	C7.2,25.5,6.1,26.7,4.5,27.1z M8,11.5V9.1L22,3v2.9L8,11.5z M19.5,23.1c-1,0.3-2,0.2-2.7-0.3c-0.3-0.2-0.6-0.4-0.7-0.9
	c-0.2-1,0.9-2.2,2.5-2.6c1-0.3,2-0.2,2.7,0.3c0.3,0.2,0.6,0.4,0.7,0.9C22.2,21.5,21.1,22.7,19.5,23.1z"/>
</svg>
