<?xml version="1.0" encoding="utf-8"?>
<!-- Generator: Adobe Illustrator 21.0.2, SVG Export Plug-In . SVG Version: 6.00 Build 0)  -->
<svg version="1.1" id="Laag_1" xmlns="http://www.w3.org/2000/svg" xmlns:xlink="http://www.w3.org/1999/xlink" x="0px" y="0px"
	 viewBox="0 0 381 724" style="enable-background:new 0 0 381 724;" xml:space="preserve">
<style type="text/css">
	.st0{fill:none;stroke:#666666;stroke-width:35;stroke-miterlimit:10;}
	.st1{fill:#F9F9F9;}
	.st2{opacity:0.52;}
	.st3{opacity:0.19;enable-background:new    ;}
	.st4{fill:#D8D8D8;}
	.st5{fill:#666666;}
	.st6{fill:#B2B2B2;}
</style>
<title>logo</title>
<g id="Laag_3">
	<path class="st0" d="M287.9,402.3l-20.7-2.4c43.1-2.8,58.3-215.2,58.3-215.2s17.6-195-106.8-157.4s-90.5,356.5-90.5,356.5l-14-1.6
		c-83.6,28-57.7,40.2-47.1,43.4l-0.5-0.1c-5.2,151.7,73.4,163.3,73.4,163.3c-13.9,120.3,12.2,109.6,12.2,109.6
		c43.9,30.3,53.4-95.6,54.2-107.5c0.2-0.2,0.3-0.4,0.5-0.6l-0.4,0.3c0-0.3,0.1-0.5,0.1-0.5c65.8-10,78.3-139.2,78.3-139.2l-21.3-2.5
		C324,440.1,287.9,402.3,287.9,402.3z"/>
	<g>
		<path class="st1" d="M152.3,698.3c0,0-26.1,10.8-12.2-109.6c0,0-78.6-11.7-73.4-163.3l218.3,25.3c0,0-12.6,129.2-78.3,139.2
			C206.5,590,198.3,730.1,152.3,698.3z"/>
		<g class="st2">
			<path class="st3" d="M140.2,591.7c15.9,2.4,41.7,2.1,66.8-1.5c0,0-34.9,21-68.1,12.7L140.2,591.7z"/>
		</g>
		<path class="st4" d="M70.7,426.4c0,0-56.2-10.9,43.5-44.2l173.7,20.1c0,0,36.9,38.6-26.3,46.2S70.7,426.4,70.7,426.4z"/>
		<path class="st5" d="M179.4,425.6l-55.4-6.4c0,0-15.3-11.1,7.4-12.6s115.1,8.3,115.1,8.3S257.1,434.9,179.4,425.6z"/>
		<path class="st1" d="M128.2,383.8c0,0-34-319,90.5-356.5s106.8,157.4,106.8,157.4s-15.2,212.4-58.3,215.2S128.2,383.8,128.2,383.8
			z"/>
	</g>
	<path class="st5" d="M215.2,279.6c0,0-17.8-40.5-28.6-34.6c-10.8,5.9-37.1,36.5-32.6,56.7c4.6,20.7,26.1,34.3,37.4,33.2
		c9.3-0.9,21.6-13.9,26-22.9c4.4-9,13.2-5,28.2-130.7l1-8.8c0,0,8.4,18,11.1,27.5c5.5,19.6,0.6,38.8-6.7,58.2
		c0,0,33.7-21.6,27.1-77.9c-1.4-12.3-10.9-28.3-18.5-45c-8.1-17.7-14.5-36-14.3-35.9C226.4,175.5,235.9,221.2,215.2,279.6z"/>
	<path class="st6" d="M139.9,588.8c14.1,4.6,40.4,5.5,62.3,2.5c0,0-12.3,22.5-29,32.6c-17.3,10.5-32.2,13.8-36.9,11.8
		C136.1,620,139.9,588.8,139.9,588.8z"/>
</g>
</svg>
