<?xml version="1.0" encoding="utf-8"?>
<!-- Generator: Adobe Illustrator 21.0.2, SVG Export Plug-In . SVG Version: 6.00 Build 0)  -->
<svg version="1.1" id="Laag_1" xmlns="http://www.w3.org/2000/svg" xmlns:xlink="http://www.w3.org/1999/xlink" x="0px" y="0px"
	 viewBox="0 0 381 724" style="enable-background:new 0 0 381 724;" xml:space="preserve">
<style type="text/css">
	.st0{fill:none;stroke:#666666;stroke-width:35;stroke-miterlimit:10;}
	.st1{fill:#F9F9F9;}
	.st2{opacity:0.52;}
	.st3{opacity:0.19;enable-background:new    ;}
	.st4{fill:#D8D8D8;}
	.st5{fill:#666666;}
	.st6{fill:#9F3EDD;}
	.st7{fill:#B2B2B2;}
</style>
<title>logo</title>
<g id="Laag_3">
	<path class="st0" d="M344.5,392.3h-29.7c60.4-7.8,47.1-221.4,47.1-221.4s-7-196.5-176.6-144.7s-69.5,366-69.5,366h-20
		C-17.6,429.8,21,439,36.5,440.9h-0.7c17.5,151.9,130.4,154.4,130.4,154.4c0,121.6,35.1,107.9,35.1,107.9
		c67,25.1,59.8-101.6,59-113.5c0.2-0.2,0.4-0.4,0.6-0.7l-0.6,0.3c0-0.3,0-0.5,0-0.5c91.3-17.6,87.8-147.9,87.8-147.9h-30.5
		C401.6,425.8,344.5,392.3,344.5,392.3z"/>
	<g>
		<path class="st1" d="M201.4,703.2c0,0-35.1,13.8-35.1-107.9c0,0-112.9-2.5-130.4-154.4h312.3c0,0,3.4,130.3-87.8,147.9
			C260.3,588.9,271.6,729.5,201.4,703.2z"/>
		<g class="st2">
			<path class="st3" d="M166.8,598.2c22.9,0.6,59.2-2.7,94.1-9.2c0,0-45.9,25-94.1,20.5L166.8,598.2z"/>
		</g>
		<path class="st4" d="M41.6,441.4c0,0-81.2-4.4,54.3-49.2h248.6c0,0,58.4,34.3-29.6,49.2S41.6,441.4,41.6,441.4z"/>
		<path class="st5" d="M195.1,428.1h-79.3c0,0-23.5-9.3,8.4-13.4s163.9-5,163.9-5S306.3,428.3,195.1,428.1z"/>
		<path class="st1" d="M115.9,392.3c0,0-100.1-314.2,69.5-366s176.6,144.6,176.6,144.6s13.3,213.6-47.1,221.4
			S115.9,392.3,115.9,392.3z"/>
	</g>
	<path class="st6" d="M221.8,278.3c0,0-31.8-38.3-46-31.2s-46.4,40.7-36.8,60.3c9.8,20.2,42.5,31.2,58.2,28.8
		c13-2,28.2-16.3,33-25.8s17.8-6.5,18.4-133.6v-8.9c0,0,14.8,16.9,20.2,26.1c11,18.9,7.1,38.6,0,58.8c0,0,44-25.4,25.5-80.8
		c-4-12.1-20-26.9-33.6-42.8c-14.4-16.8-26.4-34.2-26-34.1C220.6,173.2,241.3,217.7,221.8,278.3z"/>
	<path class="st7" d="M166,595.4c20.7,3,57.9,0.8,88.4-4.7c0,0-13.7,23.8-35.7,35.8c-22.8,12.4-43.3,17.4-50.3,16
		C165.8,627,166,595.4,166,595.4z"/>
</g>
</svg>
