<svg xmlns="http://www.w3.org/2000/svg" viewBox="0 0 380.98 723.97">
  <defs>
    <style>
      .cls-1 {
        fill: none;
        stroke: #666;
        stroke-miterlimit: 10;
        stroke-width: 35px;
      }

      .cls-2 {
        fill: #f9f9f9;
      }

      .cls-3 {
        opacity: 0.52;
      }

      .cls-4 {
        opacity: 0.19;
        isolation: isolate;
      }

      .cls-5 {
        fill: #d8d8d8;
      }

      .cls-6 {
        fill: #666;
      }

      .cls-7 {
        fill: #b2b2b2;
      }
    </style>
  </defs>
  <title>logo</title>
  <g id="Laag_3" data-name="Laag 3">
    <path class="cls-1" d="M654,530.28H624.33c60.38-7.76,47.11-221.37,47.11-221.37s-7-196.54-176.6-144.68-69.47,366-69.47,366h-20C291.92,567.79,330.5,577,346,578.93h-.7c17.53,151.85,130.44,154.4,130.44,154.4,0,121.64,35.14,107.87,35.14,107.87,67,25.1,59.8-101.56,59-113.48a3.85,3.85,0,0,0,.57-.69l-.59.31c0-.33,0-.52,0-.52,91.26-17.57,87.84-147.89,87.84-147.89H627.2C711.12,563.79,654,530.28,654,530.28Z" transform="translate(-309.5 -138.02)"/>
    <g>
      <path class="cls-2" d="M510.87,841.2S475.73,855,475.73,733.33c0,0-112.91-2.55-130.44-154.4H657.63s3.42,130.32-87.84,147.89C569.79,726.9,581.1,867.53,510.87,841.2Z" transform="translate(-309.5 -138.02)"/>
      <g class="cls-3">
        <path class="cls-4" d="M476.32,736.25c22.85.58,59.18-2.69,94.1-9.22,0,0-45.91,25-94.1,20.49Z" transform="translate(-309.5 -138.02)"/>
      </g>
      <path class="cls-5" d="M351.13,579.43s-81.16-4.38,54.25-49.15H654s58.42,34.26-29.63,49.15S351.13,579.43,351.13,579.43Z" transform="translate(-309.5 -138.02)"/>
      <path class="cls-6" d="M504.57,566.08H425.28s-23.45-9.26,8.35-13.44,163.91-5,163.91-5S615.82,566.37,504.57,566.08Z" transform="translate(-309.5 -138.02)"/>
      <path class="cls-2" d="M425.37,530.28s-100.15-314.18,69.48-366S671.44,308.91,671.44,308.91s13.27,213.61-47.11,221.37S425.37,530.28,425.37,530.28Z" transform="translate(-309.5 -138.02)"/>
    </g>
    <path class="cls-6" d="M531.25,416.3s-31.77-38.31-46-31.19-46.38,40.69-36.83,60.29c9.83,20.16,42.47,31.18,58.21,28.81,13-1.95,28.22-16.33,33-25.84s17.82-6.53,18.41-133.64v-8.91s14.85,16.93,20.2,26.13c11,18.89,7.13,38.61,0,58.81,0,0,44-25.42,25.54-80.78-4-12.09-20-26.94-33.56-42.77-14.41-16.76-26.4-34.18-26-34.15C530.07,311.17,550.85,355.71,531.25,416.3Z" transform="translate(-309.5 -138.02)"/>
    <path class="cls-7" d="M475.5,733.44c20.67,3,57.91.8,88.42-4.71,0,0-13.67,23.83-35.67,35.83C505.47,777,485,782,478,780.56,475.25,765,475.5,733.44,475.5,733.44Z" transform="translate(-309.5 -138.02)"/>
  </g>
</svg>
