<?xml version="1.0" encoding="utf-8"?>
<!-- Generator: Adobe Illustrator 21.0.2, SVG Export Plug-In . SVG Version: 6.00 Build 0)  -->
<svg version="1.1" xmlns="http://www.w3.org/2000/svg" xmlns:xlink="http://www.w3.org/1999/xlink" x="0px" y="0px"
	 viewBox="0 0 1500 2000" style="enable-background:new 0 0 1500 2000;" xml:space="preserve">
<style type="text/css">
	.st0{fill:none;stroke:#666666;stroke-width:35;stroke-miterlimit:10;}
	.st1{fill:#F9F9F9;}
	.st2{opacity:0.52;}
	.st3{opacity:0.19;enable-background:new    ;}
	.st4{fill:#D8D8D8;}
	.st5{fill:#666666;}
	.st6{fill:#B2B2B2;}
	.st7{opacity:0.25;}
</style>
<g id="Laag_1">
	<title>logo</title>
	<g id="Laag_3">
		<path class="st0" d="M904,1030.3h-29.7c60.4-7.8,47.1-221.4,47.1-221.4s-7-196.5-176.6-144.7c-169.6,51.9-69.5,366-69.5,366h-20
			c-113.5,37.6-74.9,46.8-59.4,48.7h-0.7c17.5,151.8,130.4,154.4,130.4,154.4c0,121.6,35.1,107.9,35.1,107.9
			c67,25.1,59.8-101.6,59-113.5c0.2-0.2,0.4-0.4,0.6-0.7l-0.6,0.3c0-0.3,0-0.5,0-0.5c91.3-17.6,87.8-147.9,87.8-147.9h-30.5
			C961.1,1063.8,904,1030.3,904,1030.3z"/>
		<g>
			<path class="st1" d="M760.9,1341.2c0,0-35.1,13.8-35.1-107.9c0,0-112.9-2.6-130.4-154.4h312.3c0,0,3.4,130.3-87.8,147.9
				C819.8,1226.9,831.1,1367.5,760.9,1341.2z"/>
			<g class="st2">
				<path class="st3" d="M726.3,1236.2c22.8,0.6,59.2-2.7,94.1-9.2c0,0-45.9,25-94.1,20.5L726.3,1236.2z"/>
			</g>
			<path class="st4" d="M601.1,1079.4c0,0-81.2-4.4,54.3-49.2H904c0,0,58.4,34.3-29.6,49.2S601.1,1079.4,601.1,1079.4z"/>
			<path class="st5" d="M754.6,1066.1h-79.3c0,0-23.5-9.3,8.4-13.4c31.8-4.2,163.9-5,163.9-5S865.8,1066.4,754.6,1066.1z"/>
			<path class="st1" d="M675.4,1030.3c0,0-100.2-314.2,69.5-366s176.6,144.6,176.6,144.6s13.3,213.6-47.1,221.4
				S675.4,1030.3,675.4,1030.3z"/>
		</g>
		<path class="st5" d="M781.3,916.3c0,0-31.8-38.3-46-31.2c-14.2,7.1-46.4,40.7-36.8,60.3c9.8,20.2,42.5,31.2,58.2,28.8
			c13-2,28.2-16.3,33-25.8s17.8-6.5,18.4-133.6v-8.9c0,0,14.8,16.9,20.2,26.1c11,18.9,7.1,38.6,0,58.8c0,0,44-25.4,25.5-80.8
			c-4-12.1-20-26.9-33.6-42.8c-14.4-16.8-26.4-34.2-26-34.2C780.1,811.2,800.9,855.7,781.3,916.3z"/>
		<path class="st6" d="M725.5,1233.4c20.7,3,57.9,0.8,88.4-4.7c0,0-13.7,23.8-35.7,35.8c-22.8,12.4-43.3,17.4-50.3,16
			C725.3,1265,725.5,1233.4,725.5,1233.4z"/>
	</g>
</g>
<g id="Laag_1_kopie_3">
	<title>logo</title>
	<g id="Laag_3_3_" class="st7">
		<path class="st0" d="M1274,1030.3h-29.7c60.4-7.8,47.1-221.4,47.1-221.4s-7-196.5-176.6-144.7c-169.6,51.9-69.5,366-69.5,366h-20
			c-113.5,37.6-74.9,46.8-59.4,48.7h-0.7c17.5,151.8,130.4,154.4,130.4,154.4c0,121.6,35.1,107.9,35.1,107.9
			c67,25.1,59.8-101.6,59-113.5c0.2-0.2,0.4-0.4,0.6-0.7l-0.6,0.3c0-0.3,0-0.5,0-0.5c91.3-17.6,87.8-147.9,87.8-147.9h-30.5
			C1331.1,1063.8,1274,1030.3,1274,1030.3z"/>
		<g>
			<path class="st1" d="M1130.9,1341.2c0,0-35.1,13.8-35.1-107.9c0,0-112.9-2.6-130.4-154.4h312.3c0,0,3.4,130.3-87.8,147.9
				C1189.8,1226.9,1201.1,1367.5,1130.9,1341.2z"/>
			<g class="st2">
				<path class="st3" d="M1096.3,1236.2c22.9,0.6,59.2-2.7,94.1-9.2c0,0-45.9,25-94.1,20.5V1236.2z"/>
			</g>
			<path class="st4" d="M971.1,1079.4c0,0-81.2-4.4,54.3-49.2H1274c0,0,58.4,34.3-29.6,49.2
				C1156.3,1094.3,971.1,1079.4,971.1,1079.4z"/>
			<path class="st5" d="M1124.6,1066.1h-79.3c0,0-23.5-9.3,8.3-13.4c31.8-4.2,163.9-5,163.9-5S1235.8,1066.4,1124.6,1066.1z"/>
			<path class="st1" d="M1045.4,1030.3c0,0-100.2-314.2,69.5-366s176.6,144.6,176.6,144.6s13.3,213.6-47.1,221.4
				S1045.4,1030.3,1045.4,1030.3z"/>
		</g>
		<path class="st5" d="M1151.3,916.3c0,0-31.8-38.3-46-31.2s-46.4,40.7-36.8,60.3c9.8,20.2,42.5,31.2,58.2,28.8
			c13-2,28.2-16.3,33-25.8s17.8-6.5,18.4-133.6v-8.9c0,0,14.8,16.9,20.2,26.1c11,18.9,7.1,38.6,0,58.8c0,0,44-25.4,25.5-80.8
			c-4-12.1-20-26.9-33.6-42.8c-14.4-16.8-26.4-34.2-26-34.2C1150.1,811.2,1170.9,855.7,1151.3,916.3z"/>
		<path class="st6" d="M1095.5,1233.4c20.7,3,57.9,0.8,88.4-4.7c0,0-13.7,23.8-35.7,35.8c-22.8,12.4-43.3,17.4-50.3,16
			C1095.3,1265,1095.5,1233.4,1095.5,1233.4z"/>
	</g>
</g>
<g id="Laag_1_kopie_4">
	<title>logo</title>
	<g id="Laag_3_4_" class="st7">
		<path class="st0" d="M534,1030.3h-29.7c60.4-7.8,47.1-221.4,47.1-221.4s-7-196.5-176.6-144.7c-169.6,51.9-69.5,366-69.5,366h-20
			c-113.4,37.6-74.9,46.8-59.4,48.7h-0.7c17.5,151.8,130.4,154.4,130.4,154.4c0,121.6,35.1,107.9,35.1,107.9
			c67,25.1,59.8-101.6,59-113.5c0.2-0.2,0.4-0.4,0.6-0.7l-0.6,0.3c0-0.3,0-0.5,0-0.5c91.3-17.6,87.8-147.9,87.8-147.9h-30.5
			C591.1,1063.8,534,1030.3,534,1030.3z"/>
		<g>
			<path class="st1" d="M390.9,1341.2c0,0-35.1,13.8-35.1-107.9c0,0-112.9-2.6-130.4-154.4h312.3c0,0,3.4,130.3-87.8,147.9
				C449.8,1226.9,461.1,1367.5,390.9,1341.2z"/>
			<g class="st2">
				<path class="st3" d="M356.3,1236.2c22.8,0.6,59.2-2.7,94.1-9.2c0,0-45.9,25-94.1,20.5L356.3,1236.2z"/>
			</g>
			<path class="st4" d="M231.1,1079.4c0,0-81.2-4.4,54.3-49.2H534c0,0,58.4,34.3-29.6,49.2S231.1,1079.4,231.1,1079.4z"/>
			<path class="st5" d="M384.6,1066.1h-79.3c0,0-23.5-9.3,8.4-13.4c31.8-4.2,163.9-5,163.9-5S495.8,1066.4,384.6,1066.1z"/>
			<path class="st1" d="M305.4,1030.3c0,0-100.2-314.2,69.5-366s176.6,144.6,176.6,144.6s13.3,213.6-47.1,221.4
				S305.4,1030.3,305.4,1030.3z"/>
		</g>
		<path class="st5" d="M411.3,916.3c0,0-31.8-38.3-46-31.2c-14.2,7.1-46.4,40.7-36.8,60.3c9.8,20.2,42.5,31.2,58.2,28.8
			c13-2,28.2-16.3,33-25.8s17.8-6.5,18.4-133.6v-8.9c0,0,14.8,16.9,20.2,26.1c11,18.9,7.1,38.6,0,58.8c0,0,44-25.4,25.5-80.8
			c-4-12.1-20-26.9-33.6-42.8c-14.4-16.8-26.4-34.2-26-34.2C410.1,811.2,430.9,855.7,411.3,916.3z"/>
		<path class="st6" d="M355.5,1233.4c20.7,3,57.9,0.8,88.4-4.7c0,0-13.7,23.8-35.7,35.8c-22.8,12.4-43.3,17.4-50.3,16
			C355.3,1265,355.5,1233.4,355.5,1233.4z"/>
	</g>
</g>
<g id="Laag_1_kopie">
	<title>logo</title>
	<g id="Laag_3_1_" class="st7">
		<path class="st0" d="M780.3,296v29.7c-7.8-60.4-221.4-47.1-221.4-47.1s-196.5,7-144.7,176.6s366,69.5,366,69.5v20
			c37.6,113.4,46.8,74.9,48.7,59.4v0.7c151.9-17.5,154.4-130.4,154.4-130.4c121.6,0,107.9-35.1,107.9-35.1
			c25.1-67-101.6-59.8-113.5-59c-0.2-0.2-0.4-0.4-0.7-0.6l0.3,0.6c-0.3,0-0.5,0-0.5,0c-17.6-91.3-147.9-87.8-147.9-87.8v30.5
			C813.8,238.9,780.3,296,780.3,296z"/>
		<g>
			<path class="st1" d="M1091.2,439.1c0,0,13.8,35.1-107.9,35.1c0,0-2.5,112.9-154.4,130.4V292.4c0,0,130.3-3.4,147.9,87.8
				C976.9,380.2,1117.5,368.9,1091.2,439.1z"/>
			<g class="st2">
				<path class="st3" d="M986.3,473.7c0.6-22.9-2.7-59.2-9.2-94.1c0,0,25,45.9,20.5,94.1L986.3,473.7z"/>
			</g>
			<path class="st4" d="M829.4,598.9c0,0-4.4,81.2-49.2-54.3V296c0,0,34.3-58.4,49.2,29.6S829.4,598.9,829.4,598.9z"/>
			<path class="st5" d="M816.1,445.4v79.3c0,0-9.3,23.5-13.4-8.3c-4.2-31.8-5-163.9-5-163.9S816.4,334.2,816.1,445.4z"/>
			<path class="st1" d="M780.3,524.6c0,0-314.2,100.1-366-69.5s144.6-176.6,144.6-176.6s213.6-13.3,221.4,47.1
				S780.3,524.6,780.3,524.6z"/>
		</g>
		<path class="st5" d="M666.3,418.7c0,0-38.3,31.8-31.2,46s40.7,46.4,60.3,36.8c20.2-9.8,31.2-42.5,28.8-58.2
			c-2-13-16.3-28.2-25.8-33s-6.5-17.8-133.6-18.4h-8.9c0,0,16.9-14.8,26.1-20.2c18.9-11,38.6-7.1,58.8,0c0,0-25.4-44-80.8-25.5
			c-12.1,4-26.9,20-42.8,33.6c-16.8,14.4-34.2,26.4-34.1,26C561.2,419.9,605.7,399.1,666.3,418.7z"/>
		<path class="st6" d="M983.5,474.5c3-20.7,0.8-57.9-4.7-88.4c0,0,23.8,13.7,35.8,35.7c12.4,22.8,17.4,43.3,16,50.3
			C1015,474.7,983.5,474.5,983.5,474.5z"/>
	</g>
</g>
<g id="Laag_1_kopie_2">
	<title>logo</title>
	<g id="Laag_3_2_" class="st7">
		<path class="st0" d="M780.3,1386v29.7c-7.8-60.4-221.4-47.1-221.4-47.1s-196.5,7-144.7,176.6s366,69.5,366,69.5v20
			c37.6,113.5,46.8,74.9,48.7,59.4v0.7c151.9-17.5,154.4-130.4,154.4-130.4c121.6,0,107.9-35.1,107.9-35.1
			c25.1-67-101.6-59.8-113.5-59c-0.2-0.2-0.4-0.4-0.7-0.6l0.3,0.6c-0.3,0-0.5,0-0.5,0c-17.6-91.3-147.9-87.8-147.9-87.8v30.5
			C813.8,1328.9,780.3,1386,780.3,1386z"/>
		<g>
			<path class="st1" d="M1091.2,1529.1c0,0,13.8,35.1-107.9,35.1c0,0-2.5,112.9-154.4,130.4v-312.3c0,0,130.3-3.4,147.9,87.8
				C976.9,1470.2,1117.5,1458.9,1091.2,1529.1z"/>
			<g class="st2">
				<path class="st3" d="M986.3,1563.7c0.6-22.8-2.7-59.2-9.2-94.1c0,0,25,45.9,20.5,94.1H986.3z"/>
			</g>
			<path class="st4" d="M829.4,1688.9c0,0-4.4,81.2-49.2-54.3V1386c0,0,34.3-58.4,49.2,29.6C844.3,1503.7,829.4,1688.9,829.4,1688.9
				z"/>
			<path class="st5" d="M816.1,1535.4v79.3c0,0-9.3,23.4-13.4-8.4c-4.2-31.8-5-163.9-5-163.9S816.4,1424.2,816.1,1535.4z"/>
			<path class="st1" d="M780.3,1614.6c0,0-314.2,100.2-366-69.5s144.6-176.6,144.6-176.6s213.6-13.3,221.4,47.1
				S780.3,1614.6,780.3,1614.6z"/>
		</g>
		<path class="st5" d="M666.3,1508.7c0,0-38.3,31.8-31.2,46c7.1,14.2,40.7,46.4,60.3,36.8c20.2-9.8,31.2-42.5,28.8-58.2
			c-2-13-16.3-28.2-25.8-33s-6.5-17.8-133.6-18.4h-8.9c0,0,16.9-14.8,26.1-20.2c18.9-11,38.6-7.1,58.8,0c0,0-25.4-44-80.8-25.5
			c-12.1,4-26.9,20-42.8,33.6c-16.8,14.4-34.2,26.4-34.1,26C561.2,1509.9,605.7,1489.1,666.3,1508.7z"/>
		<path class="st6" d="M983.5,1564.5c3-20.7,0.8-57.9-4.7-88.4c0,0,23.8,13.7,35.8,35.7c12.4,22.8,17.4,43.3,16,50.3
			C1015,1564.7,983.5,1564.5,983.5,1564.5z"/>
	</g>
</g>
</svg>
