<?xml version="1.0" encoding="utf-8"?>
<!-- Generator: Adobe Illustrator 21.0.2, SVG Export Plug-In . SVG Version: 6.00 Build 0)  -->
<svg version="1.1" xmlns="http://www.w3.org/2000/svg" xmlns:xlink="http://www.w3.org/1999/xlink" x="0px" y="0px"
	 viewBox="0 0 1000 1000" style="enable-background:new 0 0 1000 1000;" xml:space="preserve">
<style type="text/css">
	.st0{fill:#0C426D;}
</style>
<g id="Laag_1">
</g>
<g id="Layer_1">
	<g>
		<path class="st0" d="M449,467.2l-8.5,2.7v-3.4l9.6-3.2c0.9-0.4,1.4-1.3,1.1-2.3c-0.4-0.9-1.3-1.4-2.3-1.1l-10.8,3.6
			c-0.5,0.4-1.1,1.1-1.1,1.8V495c-1.1-0.5-2.5-0.9-4-0.9c-1.1,0-2,0.2-3.1,0.4c-4.9,1.3-8.1,5.2-7.2,9.2c0.7,2.9,3.6,4.9,7.6,4.9
			l0,0c1.1,0,2-0.2,3.1-0.4c4.5-1.3,7.6-4.7,7.4-8.3c0-0.2,0-0.2,0-0.4v-25.8l9.6-3.1c0.9-0.4,1.4-1.3,1.1-2.3
			C450.9,467.4,449.9,466.9,449,467.2z"/>
	</g>
	<g>
		<path class="st0" d="M605.6,399.1c-0.7-0.5-1.4-1.1-1.8-1.6l-1.1-2.9l0,0c0,0,0-0.2-0.2-0.2v-0.2l0,0c-0.2-0.2-0.2-0.2-0.4-0.4
			l0,0c0,0,0,0-0.2,0c-0.2,0-0.2-0.2-0.4-0.2l0,0c0,0,0,0-0.2,0c-0.2,0-0.2,0-0.4,0l0,0l0,0l0,0c0,0,0,0-0.2,0h-0.2
			c-0.2,0-0.2,0-0.2,0.2l0,0c0,0-0.2,0-0.2,0.2c-0.2,0-0.2,0.2-0.4,0.2l0,0c0,0,0,0.2-0.2,0.2c0,0.2-0.2,0.2-0.2,0.4l0,0v0.2
			c0,0.2,0,0.4,0,0.4l0,0l0,0v9v26.1c-1.1-0.5-2.5-0.9-4-0.9c-1.1,0-2,0.2-3.1,0.4c-4.9,1.3-8.1,5.2-7.2,9.2
			c0.7,2.9,3.6,4.9,7.6,4.9l0,0c1.1,0,2-0.2,3.1-0.4c4.5-1.3,7.6-4.7,7.4-8.3c0-0.2,0-0.2,0-0.4v-24.5c0.2,0.2,0.5,0.4,0.7,0.5
			c4,2.9,4.7,4.1,4.7,8.1l-1.6,4.1c-0.4,0.9,0,2,0.9,2.3c-0.5,0.2-0.2,0.2,0,0.2c0.7,0,1.4-0.4,1.6-1.1l1.8-4.3
			C615.5,411.9,613.4,404.4,605.6,399.1z"/>
	</g>
	<g>
		<path class="st0" d="M500.4,334.4L500.4,334.4v-26.1l0,0V301c0-0.5-0.4-1.3-0.9-1.4c-0.5-0.4-1.1-0.4-1.6-0.2l-27,11.7
			c-0.7,0.2-1.1,0.9-1.1,1.6v6.3l0,0v17.8c-0.9-0.4-2.2-0.5-3.2-0.5c-0.9,0-1.8,0.2-2.7,0.4c-4.5,1.1-7.4,4.7-6.5,7.9
			c0.5,2.5,3.4,4.3,6.9,4.3c0.9,0,1.8-0.2,2.7-0.4c4-1.1,6.7-3.8,6.7-6.9l0,0v-21.6l23.4-9.4v18.7c-0.9-0.4-2.2-0.5-3.2-0.5
			c-0.9,0-1.8,0.2-2.7,0.4c-4.5,1.1-7.4,4.7-6.5,7.9c0.5,2.5,3.4,4.3,6.9,4.3c0.9,0,1.8-0.2,2.7-0.4
			C497.7,340.1,500.4,337.2,500.4,334.4z M473.4,316.3v-2.5l23.4-10.1v3.2L473.4,316.3z"/>
	</g>
	<g>
		<path class="st0" d="M640.3,253.2l-8.5,2.7v-3.4l9.6-3.2c0.9-0.4,1.4-1.3,1.1-2.3c-0.4-0.9-1.3-1.4-2.3-1.1l-10.8,3.6
			c-0.5,0.4-1.1,1.1-1.1,1.8V281c-1.1-0.5-2.5-0.9-4-0.9c-1.1,0-2,0.2-3.1,0.4c-4.9,1.3-8.1,5.2-7.2,9.2c0.7,2.9,3.6,4.9,7.6,4.9
			l0,0c1.1,0,2-0.2,3.1-0.4c4.5-1.3,7.6-4.7,7.4-8.3c0-0.2,0-0.2,0-0.4v-25.8l9.6-3.1c0.9-0.4,1.4-1.3,1.1-2.3
			C642.3,253.4,641.2,252.9,640.3,253.2z"/>
	</g>
	<g>
		<path class="st0" d="M326.4,354.3c-0.7-0.5-1.4-1.1-1.8-1.6l-1.1-2.9l0,0c0,0,0-0.2-0.2-0.2v-0.2l0,0c-0.2-0.2-0.2-0.2-0.4-0.4
			l0,0c0,0,0,0-0.2,0s-0.2-0.2-0.4-0.2l0,0c0,0,0,0-0.2,0s-0.2,0-0.4,0l0,0l0,0l0,0c0,0,0,0-0.2,0h-0.2c-0.2,0-0.2,0-0.2,0.2l0,0
			c0,0-0.2,0-0.2,0.2c-0.2,0-0.2,0.2-0.4,0.2l0,0c0,0,0,0.2-0.2,0.2c0,0.2-0.2,0.2-0.2,0.4l0,0v0.2c0,0.2,0,0.4,0,0.4l0,0l0,0v9
			v26.1c-1.1-0.5-2.5-0.9-4-0.9c-1.1,0-2,0.2-3.1,0.4c-4.9,1.3-8.1,5.2-7.2,9.2c0.7,2.9,3.6,4.9,7.6,4.9l0,0c1.1,0,2-0.2,3.1-0.4
			c4.5-1.3,7.6-4.7,7.4-8.3c0-0.2,0-0.2,0-0.4v-24.5c0.2,0.2,0.5,0.4,0.7,0.5c4,2.9,4.7,4.1,4.7,8.1l-1.6,4.1c-0.4,0.9,0,2,0.9,2.3
			c-0.5,0.2-0.2,0.2,0,0.2c0.7,0,1.4-0.4,1.6-1.1l1.8-4.3C336.4,367.1,334.2,359.5,326.4,354.3z"/>
	</g>
	<g>
		<path class="st0" d="M599.7,586.5L599.7,586.5v-26.1l0,0v-7.2c0-0.5-0.4-1.3-0.9-1.4c-0.5-0.4-1.1-0.4-1.6-0.2l-27,11.7
			c-0.7,0.2-1.1,0.9-1.1,1.6v6.3l0,0V589c-0.9-0.4-2.2-0.5-3.2-0.5c-0.9,0-1.8,0.2-2.7,0.4c-4.5,1.1-7.4,4.7-6.5,7.9
			c0.5,2.5,3.4,4.3,6.9,4.3c0.9,0,1.8-0.2,2.7-0.4c4-1.1,6.7-3.8,6.7-6.9l0,0v-21.6l23.4-9.4v18.7c-0.9-0.4-2.2-0.5-3.2-0.5
			c-0.9,0-1.8,0.2-2.7,0.4c-4.5,1.1-7.4,4.7-6.5,7.9c0.5,2.5,3.4,4.3,6.9,4.3c0.9,0,1.8-0.2,2.7-0.4
			C597,592.3,599.7,589.4,599.7,586.5z M572.6,568.5v-2.5l23.4-10.1v3.2L572.6,568.5z"/>
	</g>
	<g>
		<path class="st0" d="M306.9,510.5L306.9,510.5v-26.1l0,0v-7.2c0-0.5-0.4-1.3-0.9-1.4c-0.5-0.4-1.1-0.4-1.6-0.2l-27,11.7
			c-0.7,0.2-1.1,0.9-1.1,1.6v6.3l0,0V513c-0.9-0.4-2.2-0.5-3.2-0.5c-0.9,0-1.8,0.2-2.7,0.4c-4.5,1.1-7.4,4.7-6.5,7.9
			c0.5,2.5,3.4,4.3,6.9,4.3c0.9,0,1.8-0.2,2.7-0.4c4-1.1,6.7-3.8,6.7-6.9l0,0v-21.6l23.4-9.4v18.7c-0.9-0.4-2.2-0.5-3.2-0.5
			c-0.9,0-1.8,0.2-2.7,0.4c-4.5,1.1-7.4,4.7-6.5,7.9c0.5,2.5,3.4,4.3,6.9,4.3c0.9,0,1.8-0.2,2.7-0.4
			C304.2,516.3,306.9,513.4,306.9,510.5z M279.9,492.5v-2.5l23.4-10.1v3.2L279.9,492.5z"/>
	</g>
	<g>
		<path class="st0" d="M465.8,636.9c-0.7-0.5-1.4-1.1-1.8-1.6l-1.1-2.9l0,0c0,0,0-0.2-0.2-0.2v-0.2l0,0c-0.2-0.2-0.2-0.2-0.4-0.4
			l0,0c0,0,0,0-0.2,0s-0.2-0.2-0.4-0.2l0,0c0,0,0,0-0.2,0s-0.2,0-0.4,0l0,0l0,0l0,0c0,0,0,0-0.2,0H461c-0.2,0-0.2,0-0.2,0.2l0,0
			c0,0-0.2,0-0.2,0.2c-0.2,0-0.2,0.2-0.4,0.2l0,0c0,0,0,0.2-0.2,0.2c0,0.2-0.2,0.2-0.2,0.4l0,0v0.2c0,0.2,0,0.4,0,0.4l0,0l0,0v9
			v26.1c-1.1-0.5-2.5-0.9-4-0.9c-1.1,0-2,0.2-3.1,0.4c-4.9,1.3-8.1,5.2-7.2,9.2c0.7,2.9,3.6,4.9,7.6,4.9l0,0c1.1,0,2-0.2,3.1-0.4
			c4.5-1.3,7.6-4.7,7.4-8.3c0-0.2,0-0.2,0-0.4v-24.5c0.2,0.2,0.5,0.4,0.7,0.5c4,2.9,4.7,4.1,4.7,8.1l-1.6,4.1c-0.4,0.9,0,2,0.9,2.3
			c-0.5,0.2-0.2,0.2,0,0.2c0.7,0,1.4-0.4,1.6-1.1l1.8-4.3C475.8,649.7,473.6,642.2,465.8,636.9z"/>
	</g>
	<g>
		<path class="st0" d="M191.9,831.1l-8.5,2.7v-3.4l9.6-3.2c0.9-0.4,1.4-1.3,1.1-2.3c-0.4-0.9-1.3-1.4-2.3-1.1l-10.8,3.6
			c-0.5,0.4-1.1,1.1-1.1,1.8v29.7c-1.1-0.5-2.5-0.9-4-0.9c-1.1,0-2,0.2-3.1,0.4c-4.9,1.3-8.1,5.2-7.2,9.2c0.7,2.9,3.6,4.9,7.6,4.9
			l0,0c1.1,0,2-0.2,3.1-0.4c4.5-1.3,7.6-4.7,7.4-8.3c0-0.2,0-0.2,0-0.4v-25.8l9.6-3.1c0.9-0.4,1.4-1.3,1.1-2.3
			C193.8,831.3,192.8,830.7,191.9,831.1z"/>
	</g>
	<g>
		<path class="st0" d="M301.5,748.9c-0.7-0.5-1.4-1.1-1.8-1.6l-1.1-2.9l0,0c0,0,0-0.2-0.2-0.2V744l0,0c-0.2-0.2-0.2-0.2-0.4-0.4l0,0
			c0,0,0,0-0.2,0c-0.2,0-0.2-0.2-0.4-0.2l0,0c0,0,0,0-0.2,0s-0.2,0-0.4,0l0,0l0,0l0,0c0,0,0,0-0.2,0h-0.2c-0.2,0-0.2,0-0.2,0.2l0,0
			c0,0-0.2,0-0.2,0.2c-0.2,0-0.2,0.2-0.4,0.2l0,0c0,0,0,0.2-0.2,0.2c0,0.2-0.2,0.2-0.2,0.4l0,0v0.2c0,0.2,0,0.4,0,0.4l0,0l0,0v9
			v26.1c-1.1-0.5-2.5-0.9-4-0.9c-1.1,0-2,0.2-3.1,0.4c-4.9,1.3-8.1,5.2-7.2,9.2c0.7,2.9,3.6,4.9,7.6,4.9l0,0c1.1,0,2-0.2,3.1-0.4
			c4.5-1.3,7.6-4.7,7.4-8.3c0-0.2,0-0.2,0-0.4v-24.5c0.2,0.2,0.5,0.4,0.7,0.5c4,2.9,4.7,4.1,4.7,8.1l-1.6,4.1c-0.4,0.9,0,2,0.9,2.3
			c-0.5,0.2-0.2,0.2,0,0.2c0.7,0,1.4-0.4,1.6-1.1l1.8-4.3C311.4,761.7,309.2,754.1,301.5,748.9z"/>
	</g>
	<g>
		<path class="st0" d="M230.3,673.9L230.3,673.9v-26.1l0,0v-7.2c0-0.5-0.4-1.3-0.9-1.4c-0.5-0.4-1.1-0.4-1.6-0.2l-27,11.7
			c-0.7,0.2-1.1,0.9-1.1,1.6v6.3l0,0v17.8c-0.9-0.4-2.2-0.5-3.2-0.5c-0.9,0-1.8,0.2-2.7,0.4c-4.5,1.1-7.4,4.7-6.5,7.9
			c0.5,2.5,3.4,4.3,6.9,4.3c0.9,0,1.8-0.2,2.7-0.4c4-1.1,6.7-3.8,6.7-6.9l0,0v-21.6l23.4-9.4V669c-0.9-0.4-2.2-0.5-3.2-0.5
			c-0.9,0-1.8,0.2-2.7,0.4c-4.5,1.1-7.4,4.7-6.5,7.9c0.5,2.5,3.4,4.3,6.9,4.3c0.9,0,1.8-0.2,2.7-0.4
			C227.6,679.7,230.3,676.8,230.3,673.9z M203.3,655.9v-2.5l23.4-10.1v3.2L203.3,655.9z"/>
	</g>
	<g>
		<path class="st0" d="M350.2,603.6l-8.5,2.7v-3.4l9.6-3.2c0.9-0.4,1.4-1.3,1.1-2.3c-0.4-0.9-1.3-1.4-2.3-1.1l-10.8,3.6
			c-0.5,0.4-1.1,1.1-1.1,1.8v29.7c-1.1-0.5-2.5-0.9-4-0.9c-1.1,0-2,0.2-3.1,0.4c-4.9,1.3-8.1,5.2-7.2,9.2c0.7,2.9,3.6,4.9,7.6,4.9
			l0,0c1.1,0,2-0.2,3.1-0.4c4.5-1.3,7.6-4.7,7.4-8.3c0-0.2,0-0.2,0-0.4v-25.8l9.6-3.1c0.9-0.4,1.4-1.3,1.1-2.3
			C352.2,603.8,351.1,603.2,350.2,603.6z"/>
	</g>
	<g>
		<path class="st0" d="M45,826.8c-0.7-0.5-1.4-1.1-1.8-1.6l-1.1-2.9l0,0c0,0,0-0.2-0.2-0.2v-0.2l0,0c-0.2-0.2-0.2-0.2-0.4-0.4l0,0
			c0,0,0,0-0.2,0s-0.2-0.2-0.4-0.2l0,0c0,0,0,0-0.2,0s-0.2,0-0.4,0l0,0l0,0l0,0c0,0,0,0-0.2,0h-0.2c-0.2,0-0.2,0-0.2,0.2l0,0
			c0,0-0.2,0-0.2,0.2c-0.2,0-0.2,0.2-0.4,0.2l0,0c0,0,0,0.2-0.2,0.2c0,0.2-0.2,0.2-0.2,0.4l0,0v0.2c0,0.2,0,0.4,0,0.4l0,0l0,0v9
			v26.1c-1.1-0.5-2.5-0.9-4-0.9c-1.1,0-2,0.2-3.1,0.4c-4.9,1.3-8.1,5.2-7.2,9.2c0.7,2.9,3.6,4.9,7.6,4.9l0,0c1.1,0,2-0.2,3.1-0.4
			c4.5-1.3,7.6-4.7,7.4-8.3c0-0.2,0-0.2,0-0.4v-24.5c0.2,0.2,0.5,0.4,0.7,0.5c4,2.9,4.7,4.1,4.7,8.1l-1.6,4.1c-0.4,0.9,0,2,0.9,2.3
			c-0.5,0.2-0.2,0.2,0,0.2c0.7,0,1.4-0.4,1.6-1.1L51,848C55,839.6,52.8,832,45,826.8z"/>
	</g>
	<g>
		<path class="st0" d="M458,804.5L458,804.5v-26.1l0,0v-7.2c0-0.5-0.4-1.3-0.9-1.4c-0.5-0.4-1.1-0.4-1.6-0.2l-27,11.7
			c-0.7,0.2-1.1,0.9-1.1,1.6v6.3l0,0V807c-0.9-0.4-2.2-0.5-3.2-0.5c-0.9,0-1.8,0.2-2.7,0.4c-4.5,1.1-7.4,4.7-6.5,7.9
			c0.5,2.5,3.4,4.3,6.9,4.3c0.9,0,1.8-0.2,2.7-0.4c4-1.1,6.7-3.8,6.7-6.9l0,0v-21.6l23.4-9.4v18.7c-0.9-0.4-2.2-0.5-3.2-0.5
			c-0.9,0-1.8,0.2-2.7,0.4c-4.5,1.1-7.4,4.7-6.5,7.9c0.5,2.5,3.4,4.3,6.9,4.3c0.9,0,1.8-0.2,2.7-0.4
			C455.3,810.2,458,807.3,458,804.5z M431,786.4v-2.5l23.4-10.1v3.2L431,786.4z"/>
	</g>
	<g>
		<path class="st0" d="M93.7,983L93.7,983v-26.1l0,0v-7.2c0-0.5-0.4-1.3-0.9-1.4c-0.5-0.4-1.1-0.4-1.6-0.2l-27,11.7
			c-0.7,0.2-1.1,0.9-1.1,1.6v6.3l0,0v17.8c-0.9-0.4-2.2-0.5-3.2-0.5c-0.9,0-1.8,0.2-2.7,0.4c-4.5,1.1-7.4,4.7-6.5,7.9
			c0.5,2.5,3.4,4.3,6.9,4.3c0.9,0,1.8-0.2,2.7-0.4c4-1.1,6.7-3.8,6.7-6.9l0,0v-21.6l23.4-9.4v18.7c-0.9-0.4-2.2-0.5-3.2-0.5
			c-0.9,0-1.8,0.2-2.7,0.4c-4.5,1.1-7.4,4.7-6.5,7.9c0.5,2.5,3.4,4.3,6.9,4.3c0.9,0,1.8-0.2,2.7-0.4C91,988.8,93.7,985.9,93.7,983z
			 M66.6,965v-2.5l23.4-10.1v3.2L66.6,965z"/>
	</g>
	<g>
		<path class="st0" d="M187.2,16.5c-0.7-0.5-1.4-1.1-1.8-1.6l-1.1-2.9l0,0c0,0,0-0.2-0.2-0.2v-0.2l0,0c-0.2-0.2-0.2-0.2-0.4-0.4l0,0
			c0,0,0,0-0.2,0s-0.2-0.2-0.4-0.2l0,0c0,0,0,0-0.2,0s-0.2,0-0.4,0l0,0l0,0l0,0c0,0,0,0-0.2,0h-0.2c-0.2,0-0.2,0-0.2,0.2l0,0
			c0,0-0.2,0-0.2,0.2c-0.2,0-0.2,0.2-0.4,0.2l0,0c0,0,0,0.2-0.2,0.2c0,0.2-0.2,0.2-0.2,0.4l0,0v0.2c0,0.2,0,0.4,0,0.4l0,0l0,0v9
			v26.1c-1.1-0.5-2.5-0.9-4-0.9c-1.1,0-2,0.2-3.1,0.4c-4.9,1.3-8.1,5.2-7.2,9.2c0.7,2.9,3.6,4.9,7.6,4.9l0,0c1.1,0,2-0.2,3.1-0.4
			c4.5-1.3,7.6-4.7,7.4-8.3c0-0.2,0-0.2,0-0.4V27.9c0.2,0.2,0.5,0.4,0.7,0.5c4,2.9,4.7,4.1,4.7,8.1l-1.6,4.1c-0.4,0.9,0,2,0.9,2.3
			c-0.5,0.2-0.2,0.2,0,0.2c0.7,0,1.4-0.4,1.6-1.1l1.8-4.3C197.1,29.3,195,21.8,187.2,16.5z"/>
	</g>
	<g>
		<path class="st0" d="M792.1,286.6L792.1,286.6v-26.1l0,0v-7.2c0-0.5-0.4-1.3-0.9-1.4c-0.5-0.4-1.1-0.4-1.6-0.2l-27,11.7
			c-0.7,0.2-1.1,0.9-1.1,1.6v6.3l0,0v17.8c-0.9-0.4-2.2-0.5-3.2-0.5c-0.9,0-1.8,0.2-2.7,0.4c-4.5,1.1-7.4,4.7-6.5,7.9
			c0.5,2.5,3.4,4.3,6.9,4.3c0.9,0,1.8-0.2,2.7-0.4c4-1.1,6.7-3.8,6.7-6.9l0,0v-21.6l23.4-9.4v18.7c-0.9-0.4-2.2-0.5-3.2-0.5
			c-0.9,0-1.8,0.2-2.7,0.4c-4.5,1.1-7.4,4.7-6.5,7.9c0.5,2.5,3.4,4.3,6.9,4.3c0.9,0,1.8-0.2,2.7-0.4
			C789.4,292.4,792.1,289.5,792.1,286.6z M765.1,268.6v-2.5l23.4-10.1v3.2L765.1,268.6z"/>
	</g>
	<g>
		<path class="st0" d="M334.2,903.3l-8.5,2.7v-3.4l9.6-3.2c0.9-0.4,1.4-1.3,1.1-2.3c-0.4-0.9-1.3-1.4-2.3-1.1l-10.8,3.6
			c-0.5,0.4-1.1,1.1-1.1,1.8V931c-1.1-0.5-2.5-0.9-4-0.9c-1.1,0-2,0.2-3.1,0.4c-4.9,1.3-8.1,5.2-7.2,9.2c0.7,2.9,3.6,4.9,7.6,4.9
			l0,0c1.1,0,2-0.2,3.1-0.4c4.5-1.3,7.6-4.7,7.4-8.3c0-0.2,0-0.2,0-0.4v-25.8l9.6-3.1c0.9-0.4,1.4-1.3,1.1-2.3
			C336.2,903.4,335.1,902.9,334.2,903.3z"/>
	</g>
	<g>
		<path class="st0" d="M879.5,496.5l-8.5,2.7v-3.4l9.6-3.2c0.9-0.4,1.4-1.3,1.1-2.3c-0.4-0.9-1.3-1.4-2.3-1.1l-10.8,3.6
			c-0.5,0.4-1.1,1.1-1.1,1.8v29.7c-1.1-0.5-2.5-0.9-4-0.9c-1.1,0-2,0.2-3.1,0.4c-4.9,1.3-8.1,5.2-7.2,9.2c0.7,2.9,3.6,4.9,7.6,4.9
			l0,0c1.1,0,2-0.2,3.1-0.4c4.5-1.3,7.6-4.7,7.4-8.3c0-0.2,0-0.2,0-0.4V503l9.6-3.1c0.9-0.4,1.4-1.3,1.1-2.3
			C881.4,496.7,880.4,496.2,879.5,496.5z"/>
	</g>
	<g>
		<path class="st0" d="M148.6,499.5c-0.7-0.5-1.4-1.1-1.8-1.6l-1.1-2.9l0,0c0,0,0-0.2-0.2-0.2v-0.2l0,0c-0.2-0.2-0.2-0.2-0.4-0.4
			l0,0c0,0,0,0-0.2,0c-0.2,0-0.2-0.2-0.4-0.2l0,0c0,0,0,0-0.2,0s-0.2,0-0.4,0l0,0l0,0l0,0c0,0,0,0-0.2,0h-0.2c-0.2,0-0.2,0-0.2,0.2
			l0,0c0,0-0.2,0-0.2,0.2c-0.2,0-0.2,0.2-0.4,0.2l0,0c0,0,0,0.2-0.2,0.2c0,0.2-0.2,0.2-0.2,0.4l0,0v0.2c0,0.2,0,0.4,0,0.4l0,0l0,0v9
			v26.1c-1.1-0.5-2.5-0.9-4-0.9c-1.1,0-2,0.2-3.1,0.4c-4.9,1.3-8.1,5.2-7.2,9.2c0.7,2.9,3.6,4.9,7.6,4.9l0,0c1.1,0,2-0.2,3.1-0.4
			c4.5-1.3,7.6-4.7,7.4-8.3c0-0.2,0-0.2,0-0.4v-24.5c0.2,0.2,0.5,0.4,0.7,0.5c4,2.9,4.7,4.1,4.7,8.1l-1.6,4.1c-0.4,0.9,0,2,0.9,2.3
			c-0.5,0.2-0.2,0.2,0,0.2c0.7,0,1.4-0.4,1.6-1.1l1.8-4.3C158.5,512.3,156.3,504.7,148.6,499.5z"/>
	</g>
	<g>
		<path class="st0" d="M930.9,363.7L930.9,363.7v-26.1l0,0v-7.2c0-0.5-0.4-1.3-0.9-1.4c-0.5-0.4-1.1-0.4-1.6-0.2l-27,11.7
			c-0.7,0.2-1.1,0.9-1.1,1.6v6.3l0,0v17.8c-0.9-0.4-2.2-0.5-3.2-0.5c-0.9,0-1.8,0.2-2.7,0.4c-4.5,1.1-7.4,4.7-6.5,7.9
			c0.5,2.5,3.4,4.3,6.9,4.3c0.9,0,1.8-0.2,2.7-0.4c4-1.1,6.7-3.8,6.7-6.9l0,0v-21.6l23.4-9.4v18.7c-0.9-0.4-2.2-0.5-3.2-0.5
			c-0.9,0-1.8,0.2-2.7,0.4c-4.5,1.1-7.4,4.7-6.5,7.9c0.5,2.5,3.4,4.3,6.9,4.3c0.9,0,1.8-0.2,2.7-0.4
			C928.2,369.4,930.9,366.6,930.9,363.7z M903.9,345.6v-2.5l23.4-10.1v3.2L903.9,345.6z"/>
	</g>
	<g>
		<path class="st0" d="M106.5,700.2l-8.5,2.7v-3.4l9.6-3.2c0.9-0.4,1.4-1.3,1.1-2.3c-0.4-0.9-1.3-1.4-2.3-1.1l-10.8,3.6
			c-0.5,0.4-1.1,1.1-1.1,1.8v29.7c-1.1-0.5-2.5-0.9-4-0.9c-1.1,0-2,0.2-3.1,0.4c-4.9,1.3-8.1,5.2-7.2,9.2c0.7,2.9,3.6,4.9,7.6,4.9
			l0,0c1.1,0,2-0.2,3.1-0.4c4.5-1.3,7.6-4.7,7.4-8.3c0-0.2,0-0.2,0-0.4v-25.8l9.6-3.1c0.9-0.4,1.4-1.3,1.1-2.3
			C108.4,700.3,107.4,699.8,106.5,700.2z"/>
	</g>
	<g>
		<path class="st0" d="M756.9,383.6c-0.7-0.5-1.4-1.1-1.8-1.6l-1.1-2.9l0,0c0,0,0-0.2-0.2-0.2v-0.2l0,0c-0.2-0.2-0.2-0.2-0.4-0.4
			l0,0c0,0,0,0-0.2,0c-0.2,0-0.2-0.2-0.4-0.2l0,0c0,0,0,0-0.2,0c-0.2,0-0.2,0-0.4,0l0,0l0,0l0,0c0,0,0,0-0.2,0h-0.2
			c-0.2,0-0.2,0-0.2,0.2l0,0c0,0-0.2,0-0.2,0.2c-0.2,0-0.2,0.2-0.4,0.2l0,0c0,0,0,0.2-0.2,0.2c0,0.2-0.2,0.2-0.2,0.4l0,0v0.2
			c0,0.2,0,0.4,0,0.4l0,0l0,0v9v26.1c-1.1-0.5-2.5-0.9-4-0.9c-1.1,0-2,0.2-3.1,0.4c-4.9,1.3-8.1,5.2-7.2,9.2
			c0.7,2.9,3.6,4.9,7.6,4.9l0,0c1.1,0,2-0.2,3.1-0.4c4.5-1.3,7.6-4.7,7.4-8.3c0-0.2,0-0.2,0-0.4v-24.5c0.2,0.2,0.5,0.4,0.7,0.5
			c4,2.9,4.7,4.1,4.7,8.1l-1.6,4.1c-0.4,0.9,0,2,0.9,2.3c-0.5,0.2-0.2,0.2,0,0.2c0.7,0,1.4-0.4,1.6-1.1l1.8-4.3
			C766.9,396.4,764.7,388.8,756.9,383.6z"/>
	</g>
	<g>
		<path class="st0" d="M55.2,616.9L55.2,616.9v-26.1l0,0v-7.2c0-0.5-0.4-1.3-0.9-1.4c-0.5-0.4-1.1-0.4-1.6-0.2l-27,11.7
			c-0.7,0.2-1.1,0.9-1.1,1.6v6.3l0,0v17.8c-0.9-0.4-2.2-0.5-3.2-0.5c-0.9,0-1.8,0.2-2.7,0.4c-4.5,1.1-7.4,4.7-6.5,7.9
			c0.5,2.5,3.4,4.3,6.9,4.3c0.9,0,1.8-0.2,2.7-0.4c4-1.1,6.7-3.8,6.7-6.9l0,0v-21.6l23.4-9.4v18.7c-0.9-0.4-2.2-0.5-3.2-0.5
			c-0.9,0-1.8,0.2-2.7,0.4c-4.5,1.1-7.4,4.7-6.5,7.9c0.5,2.5,3.4,4.3,6.9,4.3c0.9,0,1.8-0.2,2.7-0.4
			C52.5,622.7,55.2,619.8,55.2,616.9z M28.1,598.9v-2.5l23.4-10.1v3.2L28.1,598.9z"/>
	</g>
	<g>
		<path class="st0" d="M747.6,551.2L747.6,551.2V525l0,0v-7.2c0-0.5-0.4-1.3-0.9-1.4c-0.5-0.4-1.1-0.4-1.6-0.2l-27,11.7
			c-0.7,0.2-1.1,0.9-1.1,1.6v6.3l0,0v17.8c-0.9-0.4-2.2-0.5-3.2-0.5c-0.9,0-1.8,0.2-2.7,0.4c-4.5,1.1-7.4,4.7-6.5,7.9
			c0.5,2.5,3.4,4.3,6.9,4.3c0.9,0,1.8-0.2,2.7-0.4c4-1.1,6.7-3.8,6.7-6.9l0,0v-21.6l23.4-9.4v18.7c-0.9-0.4-2.2-0.5-3.2-0.5
			c-0.9,0-1.8,0.2-2.7,0.4c-4.5,1.1-7.4,4.7-6.5,7.9c0.5,2.5,3.4,4.3,6.9,4.3c0.9,0,1.8-0.2,2.7-0.4
			C744.9,556.9,747.6,554.1,747.6,551.2z M720.6,533.1v-2.5l23.4-10.1v3.2L720.6,533.1z"/>
	</g>
	<g>
		<path class="st0" d="M919.1,665.1c-0.7-0.5-1.4-1.1-1.8-1.6l-1.1-2.9l0,0c0,0,0-0.2-0.2-0.2v-0.2l0,0c-0.2-0.2-0.2-0.2-0.4-0.4
			l0,0c0,0,0,0-0.2,0c-0.2,0-0.2-0.2-0.4-0.2l0,0c0,0,0,0-0.2,0c-0.2,0-0.2,0-0.4,0l0,0l0,0l0,0c0,0,0,0-0.2,0h-0.2
			c-0.2,0-0.2,0-0.2,0.2l0,0c0,0-0.2,0-0.2,0.2c-0.2,0-0.2,0.2-0.4,0.2l0,0c0,0,0,0.2-0.2,0.2c0,0.2-0.2,0.2-0.2,0.4l0,0v0.2
			c0,0.2,0,0.4,0,0.4l0,0l0,0v9v26.1c-1.1-0.5-2.5-0.9-4-0.9c-1.1,0-2,0.2-3.1,0.4c-4.9,1.3-8.1,5.2-7.2,9.2
			c0.7,2.9,3.6,4.9,7.6,4.9l0,0c1.1,0,2-0.2,3.1-0.4c4.5-1.3,7.6-4.7,7.4-8.3c0-0.2,0-0.2,0-0.4v-24.5c0.2,0.2,0.5,0.4,0.7,0.5
			c4,2.9,4.7,4.1,4.7,8.1l-1.6,4.1c-0.4,0.9,0,2,0.9,2.3c-0.5,0.2-0.2,0.2,0,0.2c0.7,0,1.4-0.4,1.6-1.1l1.8-4.3
			C929,677.9,926.8,670.3,919.1,665.1z"/>
	</g>
	<g>
		<path class="st0" d="M616.2,834.9l-8.5,2.7v-3.4l9.6-3.2c0.9-0.4,1.4-1.3,1.1-2.3c-0.4-0.9-1.3-1.4-2.3-1.1l-10.8,3.6
			c-0.5,0.4-1.1,1.1-1.1,1.8v29.7c-1.1-0.5-2.5-0.9-4-0.9c-1.1,0-2,0.2-3.1,0.4c-4.9,1.3-8.1,5.2-7.2,9.2c0.7,2.9,3.6,4.9,7.6,4.9
			l0,0c1.1,0,2-0.2,3.1-0.4c4.5-1.3,7.6-4.7,7.4-8.3c0-0.2,0-0.2,0-0.4v-25.8l9.6-3.1c0.9-0.4,1.4-1.3,1.1-2.3
			C618.2,835.1,617.1,834.6,616.2,834.9z"/>
	</g>
	<g>
		<path class="st0" d="M757.1,787.2c-0.7-0.5-1.4-1.1-1.8-1.6l-1.1-2.9l0,0c0,0,0-0.2-0.2-0.2v-0.2l0,0c-0.2-0.2-0.2-0.2-0.4-0.4
			l0,0c0,0,0,0-0.2,0c-0.2,0-0.2-0.2-0.4-0.2l0,0c0,0,0,0-0.2,0c-0.2,0-0.2,0-0.4,0l0,0l0,0l0,0c0,0,0,0-0.2,0h-0.2
			c-0.2,0-0.2,0-0.2,0.2l0,0c0,0-0.2,0-0.2,0.2c-0.2,0-0.2,0.2-0.4,0.2l0,0c0,0,0,0.2-0.2,0.2c0,0.2-0.2,0.2-0.2,0.4l0,0v0.2
			c0,0.2,0,0.4,0,0.4l0,0l0,0v9v26.1c-1.1-0.5-2.5-0.9-4-0.9c-1.1,0-2,0.2-3.1,0.4c-4.9,1.3-8.1,5.2-7.2,9.2
			c0.7,2.9,3.6,4.9,7.6,4.9l0,0c1.1,0,2-0.2,3.1-0.4c4.5-1.3,7.6-4.7,7.4-8.3c0-0.2,0-0.2,0-0.4v-24.5c0.2,0.2,0.5,0.4,0.7,0.5
			c4,2.9,4.7,4.1,4.7,8.1l-1.6,4.1c-0.4,0.9,0,2,0.9,2.3c-0.5,0.2-0.2,0.2,0,0.2c0.7,0,1.4-0.4,1.6-1.1l1.8-4.3
			C767,800,764.9,792.5,757.1,787.2z"/>
	</g>
	<g>
		<path class="st0" d="M976,971.7L976,971.7v-26.1l0,0v-7.2c0-0.5-0.4-1.3-0.9-1.4c-0.5-0.4-1.1-0.4-1.6-0.2l-27,11.7
			c-0.7,0.2-1.1,0.9-1.1,1.6v6.3l0,0v17.8c-0.9-0.4-2.2-0.5-3.2-0.5c-0.9,0-1.8,0.2-2.7,0.4c-4.5,1.1-7.4,4.7-6.5,7.9
			c0.5,2.5,3.4,4.3,6.9,4.3c0.9,0,1.8-0.2,2.7-0.4c4-1.1,6.7-3.8,6.7-6.9l0,0v-21.6l23.4-9.4v18.7c-0.9-0.4-2.2-0.5-3.2-0.5
			c-0.9,0-1.8,0.2-2.7,0.4c-4.5,1.1-7.4,4.7-6.5,7.9c0.5,2.5,3.4,4.3,6.9,4.3c0.9,0,1.8-0.2,2.7-0.4
			C973.3,977.5,976,974.6,976,971.7z M949,953.7v-2.5l23.4-10.1v3.2L949,953.7z"/>
	</g>
	<g>
		<path class="st0" d="M791,644.2l-8.5,2.7v-3.4l9.6-3.2c0.9-0.4,1.4-1.3,1.1-2.3c-0.4-0.9-1.3-1.4-2.3-1.1l-10.8,3.6
			c-0.5,0.4-1.1,1.1-1.1,1.8V672c-1.1-0.5-2.5-0.9-4-0.9c-1.1,0-2,0.2-3.1,0.4c-4.9,1.3-8.1,5.2-7.2,9.2c0.7,2.9,3.6,4.9,7.6,4.9
			l0,0c1.1,0,2-0.2,3.1-0.4c4.5-1.3,7.6-4.7,7.4-8.3c0-0.2,0-0.2,0-0.4v-25.8l9.6-3.1c0.9-0.4,1.4-1.3,1.1-2.3
			C792.9,644.4,791.9,643.9,791,644.2z"/>
	</g>
	<g>
		<path class="st0" d="M607.7,681.3c-0.7-0.5-1.4-1.1-1.8-1.6l-1.1-2.9l0,0c0,0,0-0.2-0.2-0.2v-0.2l0,0c-0.2-0.2-0.2-0.2-0.4-0.4
			l0,0c0,0,0,0-0.2,0c-0.2,0-0.2-0.2-0.4-0.2l0,0c0,0,0,0-0.2,0c-0.2,0-0.2,0-0.4,0l0,0l0,0l0,0c0,0,0,0-0.2,0h-0.2
			c-0.2,0-0.2,0-0.2,0.2l0,0c0,0-0.2,0-0.2,0.2c-0.2,0-0.2,0.2-0.4,0.2l0,0c0,0,0,0.2-0.2,0.2c0,0.2-0.2,0.2-0.2,0.4l0,0v0.2
			c0,0.2,0,0.4,0,0.4l0,0l0,0v9v26.1c-1.1-0.5-2.5-0.9-4-0.9c-1.1,0-2,0.2-3.1,0.4c-4.9,1.3-8.1,5.2-7.2,9.2
			c0.7,2.9,3.6,4.9,7.6,4.9l0,0c1.1,0,2-0.2,3.1-0.4c4.5-1.3,7.6-4.7,7.4-8.3c0-0.2,0-0.2,0-0.4v-24.5c0.2,0.2,0.5,0.4,0.7,0.5
			c4,2.9,4.7,4.1,4.7,8.1l-1.6,4.1c-0.4,0.9,0,2,0.9,2.3c-0.5,0.2-0.2,0.2,0,0.2c0.7,0,1.4-0.4,1.6-1.1l1.8-4.3
			C617.6,694.1,615.4,686.5,607.7,681.3z"/>
	</g>
	<g>
		<path class="st0" d="M918.5,839.8L918.5,839.8v-26.1l0,0v-7.2c0-0.5-0.4-1.3-0.9-1.4c-0.5-0.4-1.1-0.4-1.6-0.2l-27,11.7
			c-0.7,0.2-1.1,0.9-1.1,1.6v6.3l0,0v17.8c-0.9-0.4-2.2-0.5-3.2-0.5c-0.9,0-1.8,0.2-2.7,0.4c-4.5,1.1-7.4,4.7-6.5,7.9
			c0.5,2.5,3.4,4.3,6.9,4.3c0.9,0,1.8-0.2,2.7-0.4c4-1.1,6.7-3.8,6.7-6.9l0,0v-21.6l23.4-9.4v18.7c-0.9-0.4-2.2-0.5-3.2-0.5
			c-0.9,0-1.8,0.2-2.7,0.4c-4.5,1.1-7.4,4.7-6.5,7.9c0.5,2.5,3.4,4.3,6.9,4.3c0.9,0,1.8-0.2,2.7-0.4
			C915.8,845.5,918.5,842.7,918.5,839.8z M891.4,821.7v-2.5l23.4-10.1v3.2L891.4,821.7z"/>
	</g>
	<g>
		<path class="st0" d="M486.7,957.8L486.7,957.8v-26.1l0,0v-7.2c0-0.5-0.4-1.3-0.9-1.4c-0.5-0.4-1.1-0.4-1.6-0.2l-27,11.7
			c-0.7,0.2-1.1,0.9-1.1,1.6v6.3l0,0v17.8c-0.9-0.4-2.2-0.5-3.2-0.5c-0.9,0-1.8,0.2-2.7,0.4c-4.5,1.1-7.4,4.7-6.5,7.9
			c0.5,2.5,3.4,4.3,6.9,4.3c0.9,0,1.8-0.2,2.7-0.4c4-1.1,6.7-3.8,6.7-6.9l0,0v-21.6l23.4-9.4v18.7c-0.9-0.4-2.2-0.5-3.2-0.5
			c-0.9,0-1.8,0.2-2.7,0.4c-4.5,1.1-7.4,4.7-6.5,7.9c0.5,2.5,3.4,4.3,6.9,4.3c0.9,0,1.8-0.2,2.7-0.4
			C484,963.5,486.7,960.6,486.7,957.8z M459.6,939.7v-2.5l23.4-10.1v3.2L459.6,939.7z"/>
	</g>
	<g>
		<path class="st0" d="M662.7,951.2c-0.7-0.5-1.4-1.1-1.8-1.6l-1.1-2.9l0,0c0,0,0-0.2-0.2-0.2v-0.2l0,0c-0.2-0.2-0.2-0.2-0.4-0.4
			l0,0c0,0,0,0-0.2,0c-0.2,0-0.2-0.2-0.4-0.2l0,0c0,0,0,0-0.2,0c-0.2,0-0.2,0-0.4,0l0,0l0,0l0,0c0,0,0,0-0.2,0h-0.2
			c-0.2,0-0.2,0-0.2,0.2l0,0c0,0-0.2,0-0.2,0.2c-0.2,0-0.2,0.2-0.4,0.2l0,0c0,0,0,0.2-0.2,0.2c0,0.2-0.2,0.2-0.2,0.4l0,0v0.2
			c0,0.2,0,0.4,0,0.4l0,0l0,0v9v26.1c-1.1-0.5-2.5-0.9-4-0.9c-1.1,0-2,0.2-3.1,0.4c-4.9,1.3-8.1,5.2-7.2,9.2
			c0.7,2.9,3.6,4.9,7.6,4.9l0,0c1.1,0,2-0.2,3.1-0.4c4.5-1.3,7.6-4.7,7.4-8.3c0-0.2,0-0.2,0-0.4v-24.5c0.2,0.2,0.5,0.4,0.7,0.5
			c4,2.9,4.7,4.1,4.7,8.1l-1.6,4.1c-0.4,0.9,0,2,0.9,2.3c-0.5,0.2-0.2,0.2,0,0.2c0.7,0,1.4-0.4,1.6-1.1l1.8-4.3
			C672.6,964,670.4,956.5,662.7,951.2z"/>
	</g>
	<g>
		<path class="st0" d="M817.4,932.5l-8.5,2.7v-3.4l9.6-3.2c0.9-0.4,1.4-1.3,1.1-2.3c-0.4-0.9-1.3-1.4-2.3-1.1l-10.8,3.6
			c-0.5,0.4-1.1,1.1-1.1,1.8v29.7c-1.1-0.5-2.5-0.9-4-0.9c-1.1,0-2,0.2-3.1,0.4c-4.9,1.3-8.1,5.2-7.2,9.2c0.7,2.9,3.6,4.9,7.6,4.9
			l0,0c1.1,0,2-0.2,3.1-0.4c4.5-1.3,7.6-4.7,7.4-8.3c0-0.2,0-0.2,0-0.4V939l9.6-3.1c0.9-0.4,1.4-1.3,1.1-2.3
			C819.4,932.7,818.3,932.2,817.4,932.5z"/>
	</g>
	<g>
		<path class="st0" d="M638.8,102.1c-0.7-0.5-1.4-1.1-1.8-1.6l-1.1-2.9l0,0c0,0,0-0.2-0.2-0.2v-0.2l0,0c-0.2-0.2-0.2-0.2-0.4-0.4
			l0,0c0,0,0,0-0.2,0c-0.2,0-0.2-0.2-0.4-0.2l0,0c0,0,0,0-0.2,0c-0.2,0-0.2,0-0.4,0l0,0l0,0l0,0c0,0,0,0-0.2,0h-0.2
			c-0.2,0-0.2,0-0.2,0.2l0,0c0,0-0.2,0-0.2,0.2c-0.2,0-0.2,0.2-0.4,0.2l0,0c0,0,0,0.2-0.2,0.2c0,0.2-0.2,0.2-0.2,0.4l0,0v0.2
			c0,0.2,0,0.4,0,0.4l0,0l0,0v9v26.1c-1.1-0.5-2.5-0.9-4-0.9c-1.1,0-2,0.2-3.1,0.4c-4.9,1.3-8.1,5.2-7.2,9.2
			c0.7,2.9,3.6,4.9,7.6,4.9l0,0c1.1,0,2-0.2,3.1-0.4c4.5-1.3,7.6-4.7,7.4-8.3c0-0.2,0-0.2,0-0.4v-24.5c0.2,0.2,0.5,0.4,0.7,0.5
			c4,2.9,4.7,4.1,4.7,8.1l-1.6,4.1c-0.4,0.9,0,2,0.9,2.3c-0.5,0.2-0.2,0.2,0,0.2c0.7,0,1.4-0.4,1.6-1.1l1.8-4.3
			C648.7,114.9,646.5,107.3,638.8,102.1z"/>
	</g>
	<g>
		<path class="st0" d="M479.4,78.8L479.4,78.8V52.6l0,0v-7.2c0-0.5-0.4-1.3-0.9-1.4c-0.5-0.4-1.1-0.4-1.6-0.2l-27,11.7
			c-0.7,0.2-1.1,0.9-1.1,1.6v6.3l0,0v17.8c-0.9-0.4-2.2-0.5-3.2-0.5c-0.9,0-1.8,0.2-2.7,0.4c-4.5,1.1-7.4,4.7-6.5,7.9
			c0.5,2.5,3.4,4.3,6.9,4.3c0.9,0,1.8-0.2,2.7-0.4c4-1.1,6.7-3.8,6.7-6.9l0,0V64.5l23.4-9.4v18.7c-0.9-0.4-2.2-0.5-3.2-0.5
			c-0.9,0-1.8,0.2-2.7,0.4c-4.5,1.1-7.4,4.7-6.5,7.9c0.5,2.5,3.4,4.3,6.9,4.3c0.9,0,1.8-0.2,2.7-0.4
			C476.7,84.5,479.4,81.7,479.4,78.8z M452.4,60.7v-2.5l23.4-10.1v3.2L452.4,60.7z"/>
	</g>
	<g>
		<path class="st0" d="M402.9,242.2L402.9,242.2V216l0,0v-7.2c0-0.5-0.4-1.3-0.9-1.4c-0.5-0.4-1.1-0.4-1.6-0.2l-27,11.7
			c-0.7,0.2-1.1,0.9-1.1,1.6v6.3l0,0v17.8c-0.9-0.4-2.2-0.5-3.2-0.5c-0.9,0-1.8,0.2-2.7,0.4c-4.5,1.1-7.4,4.7-6.5,7.9
			c0.5,2.5,3.4,4.3,6.9,4.3c0.9,0,1.8-0.2,2.7-0.4c4-1.1,6.7-3.8,6.7-6.9l0,0v-21.6l23.4-9.4v18.7c-0.9-0.4-2.2-0.5-3.2-0.5
			c-0.9,0-1.8,0.2-2.7,0.4c-4.5,1.1-7.4,4.7-6.5,7.9c0.5,2.5,3.4,4.3,6.9,4.3c0.9,0,1.8-0.2,2.7-0.4
			C400.2,247.9,402.9,245.1,402.9,242.2z M375.9,224.2v-2.5l23.4-10.1v3.2L375.9,224.2z"/>
	</g>
	<g>
		<path class="st0" d="M522.8,171.9l-8.5,2.7v-3.4l9.6-3.2c0.9-0.4,1.4-1.3,1.1-2.3c-0.4-0.9-1.3-1.4-2.3-1.1l-10.8,3.6
			c-0.5,0.4-1.1,1.1-1.1,1.8v29.7c-1.1-0.5-2.5-0.9-4-0.9c-1.1,0-2,0.2-3.1,0.4c-4.9,1.3-8.1,5.2-7.2,9.2c0.7,2.9,3.6,4.9,7.6,4.9
			l0,0c1.1,0,2-0.2,3.1-0.4c4.5-1.3,7.6-4.7,7.4-8.3c0-0.2,0-0.2,0-0.4v-25.8l9.6-3.1c0.9-0.4,1.4-1.3,1.1-2.3
			C524.8,172,523.7,171.5,522.8,171.9z"/>
	</g>
	<g>
		<path class="st0" d="M321.1,67.8c-0.7-0.5-1.4-1.1-1.8-1.6l-1.1-2.9l0,0c0,0,0-0.2-0.2-0.2v-0.2l0,0c-0.2-0.2-0.2-0.2-0.4-0.4l0,0
			c0,0,0,0-0.2,0s-0.2-0.2-0.4-0.2l0,0c0,0,0,0-0.2,0s-0.2,0-0.4,0l0,0l0,0l0,0c0,0,0,0-0.2,0h-0.2c-0.2,0-0.2,0-0.2,0.2l0,0
			c0,0-0.2,0-0.2,0.2c-0.2,0-0.2,0.2-0.4,0.2l0,0c0,0,0,0.2-0.2,0.2c0,0.2-0.2,0.2-0.2,0.4l0,0v0.2c0,0.2,0,0.4,0,0.4l0,0l0,0v9
			v26.1c-1.1-0.5-2.5-0.9-4-0.9c-1.1,0-2,0.2-3.1,0.4c-4.9,1.3-8.1,5.2-7.2,9.2c0.7,2.9,3.6,4.9,7.6,4.9l0,0c1.1,0,2-0.2,3.1-0.4
			c4.5-1.3,7.6-4.7,7.4-8.3c0-0.2,0-0.2,0-0.4V79.1c0.2,0.2,0.5,0.4,0.7,0.5c4,2.9,4.7,4.1,4.7,8.1l-1.6,4.1c-0.4,0.9,0,2,0.9,2.3
			c-0.5,0.2-0.2,0.2,0,0.2c0.7,0,1.4-0.4,1.6-1.1l1.8-4.3C331.1,80.6,328.9,73,321.1,67.8z"/>
	</g>
	<g>
		<path class="st0" d="M279,268.4l-8.5,2.7v-3.4l9.6-3.2c0.9-0.4,1.4-1.3,1.1-2.3c-0.4-0.9-1.3-1.4-2.3-1.1l-10.8,3.6
			c-0.5,0.4-1.1,1.1-1.1,1.8v29.7c-1.1-0.5-2.5-0.9-4-0.9c-1.1,0-2,0.2-3.1,0.4c-4.9,1.3-8.1,5.2-7.2,9.2c0.7,2.9,3.6,4.9,7.6,4.9
			l0,0c1.1,0,2-0.2,3.1-0.4c4.5-1.3,7.6-4.7,7.4-8.3c0-0.2,0-0.2,0-0.4v-25.8l9.6-3.1c0.9-0.4,1.4-1.3,1.1-2.3
			C281,268.6,279.9,268.1,279,268.4z"/>
	</g>
	<g>
		<path class="st0" d="M227.7,185.2L227.7,185.2v-26.1l0,0v-7.2c0-0.5-0.4-1.3-0.9-1.4c-0.5-0.4-1.1-0.4-1.6-0.2l-27,11.7
			c-0.7,0.2-1.1,0.9-1.1,1.6v6.3l0,0v17.8c-0.9-0.4-2.2-0.5-3.2-0.5c-0.9,0-1.8,0.2-2.7,0.4c-4.5,1.1-7.4,4.7-6.5,7.9
			c0.5,2.5,3.4,4.3,6.9,4.3c0.9,0,1.8-0.2,2.7-0.4c4-1.1,6.7-3.8,6.7-6.9l0,0V171l23.4-9.4v18.7c-0.9-0.4-2.2-0.5-3.2-0.5
			c-0.9,0-1.8,0.2-2.7,0.4c-4.5,1.1-7.4,4.7-6.5,7.9c0.5,2.5,3.4,4.3,6.9,4.3c0.9,0,1.8-0.2,2.7-0.4
			C225,191,227.7,188.1,227.7,185.2z M200.7,167.2v-2.5l23.4-10.1v3.2L200.7,167.2z"/>
	</g>
	<g>
		<path class="st0" d="M177.1,366.5l-8.5,2.7v-3.4l9.6-3.2c0.9-0.4,1.4-1.3,1.1-2.3c-0.4-0.9-1.3-1.4-2.3-1.1l-10.8,3.6
			c-0.5,0.4-1.1,1.1-1.1,1.8v29.7c-1.1-0.5-2.5-0.9-4-0.9c-1.1,0-2,0.2-3.1,0.4c-4.9,1.3-8.1,5.2-7.2,9.2c0.7,2.9,3.6,4.9,7.6,4.9
			l0,0c1.1,0,2-0.2,3.1-0.4c4.5-1.3,7.6-4.7,7.4-8.3c0-0.2,0-0.2,0-0.4V373l9.6-3.1c0.9-0.4,1.4-1.3,1.1-2.3
			C179.1,366.7,178,366.1,177.1,366.5z"/>
	</g>
	<g>
		<path class="st0" d="M54.6,253.6c-0.7-0.5-1.4-1.1-1.8-1.6l-1.1-2.9l0,0c0,0,0-0.2-0.2-0.2v-0.2l0,0c-0.2-0.2-0.2-0.2-0.4-0.4l0,0
			c0,0,0,0-0.2,0s-0.2-0.2-0.4-0.2l0,0c0,0,0,0-0.2,0c-0.2,0-0.2,0-0.4,0l0,0l0,0l0,0c0,0,0,0-0.2,0h-0.2c-0.2,0-0.2,0-0.2,0.2l0,0
			c0,0-0.2,0-0.2,0.2c-0.2,0-0.2,0.2-0.4,0.2l0,0c0,0,0,0.2-0.2,0.2c0,0.2-0.2,0.2-0.2,0.4l0,0v0.2c0,0.2,0,0.4,0,0.4l0,0l0,0v9
			v26.1c-1.1-0.5-2.5-0.9-4-0.9c-1.1,0-2,0.2-3.1,0.4c-4.9,1.3-8.1,5.2-7.2,9.2c0.7,2.9,3.6,4.9,7.6,4.9l0,0c1.1,0,2-0.2,3.1-0.4
			c4.5-1.3,7.6-4.7,7.4-8.3c0-0.2,0-0.2,0-0.4v-24.5c0.2,0.2,0.5,0.4,0.7,0.5c4,2.9,4.7,4.1,4.7,8.1l-1.6,4.1c-0.4,0.9,0,2,0.9,2.3
			c-0.5,0.2-0.2,0.2,0,0.2c0.7,0,1.4-0.4,1.6-1.1l1.8-4.3C64.5,266.4,62.4,258.8,54.6,253.6z"/>
	</g>
	<g>
		<path class="st0" d="M45.3,421.2L45.3,421.2V395l0,0v-7.2c0-0.5-0.4-1.3-0.9-1.4c-0.5-0.4-1.1-0.4-1.6-0.2l-27,11.7
			c-0.7,0.2-1.1,0.9-1.1,1.6v6.3l0,0v17.8c-0.9-0.4-2.2-0.5-3.2-0.5c-0.9,0-1.8,0.2-2.7,0.4c-4.5,1.1-7.4,4.7-6.5,7.9
			c0.5,2.5,3.4,4.3,6.9,4.3c0.9,0,1.8-0.2,2.7-0.4c4-1.1,6.7-3.8,6.7-6.9l0,0v-21.6l23.4-9.4v18.7c-0.9-0.4-2.2-0.5-3.2-0.5
			c-0.9,0-1.8,0.2-2.7,0.4c-4.5,1.1-7.4,4.7-6.5,7.9c0.5,2.5,3.4,4.3,6.9,4.3c0.9,0,1.8-0.2,2.7-0.4C42.6,426.9,45.3,424,45.3,421.2
			z M18.3,403.1v-2.5l23.4-10.1v3.2L18.3,403.1z"/>
	</g>
	<g>
		<path class="st0" d="M98.7,124.3l-8.5,2.7v-3.4l9.6-3.2c0.9-0.4,1.4-1.3,1.1-2.3c-0.4-0.9-1.3-1.4-2.3-1.1l-10.8,3.6
			c-0.5,0.4-1.1,1.1-1.1,1.8v29.7c-1.1-0.5-2.5-0.9-4-0.9c-1.1,0-2,0.2-3.1,0.4c-4.9,1.3-8.1,5.2-7.2,9.2c0.7,2.9,3.6,4.9,7.6,4.9
			l0,0c1.1,0,2-0.2,3.1-0.4c4.5-1.3,7.6-4.7,7.4-8.3c0-0.2,0-0.2,0-0.4v-25.8l9.6-3.1c0.9-0.4,1.4-1.3,1.1-2.3
			C100.7,124.5,99.6,124,98.7,124.3z"/>
	</g>
	<g>
		<path class="st0" d="M764.4,129.3l-8.5,2.7v-3.4l9.6-3.2c0.9-0.4,1.4-1.3,1.1-2.3c-0.4-0.9-1.3-1.4-2.3-1.1l-10.8,3.6
			c-0.5,0.4-1.1,1.1-1.1,1.8V157c-1.1-0.5-2.5-0.9-4-0.9c-1.1,0-2,0.2-3.1,0.4c-4.9,1.3-8.1,5.2-7.2,9.2c0.7,2.9,3.6,4.9,7.6,4.9
			l0,0c1.1,0,2-0.2,3.1-0.4c4.5-1.3,7.6-4.7,7.4-8.3c0-0.2,0-0.2,0-0.4v-25.8l9.6-3.1c0.9-0.4,1.4-1.3,1.1-2.3
			C766.4,129.5,765.3,128.9,764.4,129.3z"/>
	</g>
	<g>
		<path class="st0" d="M900.3,193.4c-0.7-0.5-1.4-1.1-1.8-1.6l-1.1-2.9l0,0c0,0,0-0.2-0.2-0.2v-0.2l0,0c-0.2-0.2-0.2-0.2-0.4-0.4
			l0,0c0,0,0,0-0.2,0c-0.2,0-0.2-0.2-0.4-0.2l0,0c0,0,0,0-0.2,0c-0.2,0-0.2,0-0.4,0l0,0l0,0l0,0c0,0,0,0-0.2,0h-0.2
			c-0.2,0-0.2,0-0.2,0.2l0,0c0,0-0.2,0-0.2,0.2c-0.2,0-0.2,0.2-0.4,0.2l0,0c0,0,0,0.2-0.2,0.2c0,0.2-0.2,0.2-0.2,0.4l0,0v0.2
			c0,0.2,0,0.4,0,0.4l0,0l0,0v9v26.1c-1.1-0.5-2.5-0.9-4-0.9c-1.1,0-2,0.2-3.1,0.4c-4.9,1.3-8.1,5.2-7.2,9.2
			c0.7,2.9,3.6,4.9,7.6,4.9l0,0c1.1,0,2-0.2,3.1-0.4c4.5-1.3,7.6-4.7,7.4-8.3c0-0.2,0-0.2,0-0.4v-24.5c0.2,0.2,0.5,0.4,0.7,0.5
			c4,2.9,4.7,4.1,4.7,8.1l-1.6,4.1c-0.4,0.9,0,2,0.9,2.3c-0.5,0.2-0.2,0.2,0,0.2c0.7,0,1.4-0.4,1.6-1.1l1.8-4.3
			C910.2,206.2,908,198.6,900.3,193.4z"/>
	</g>
	<g>
		<path class="st0" d="M893,74.3l-8.5,2.7v-3.4l9.6-3.2c0.9-0.4,1.4-1.3,1.1-2.3c-0.4-0.9-1.3-1.4-2.3-1.1L882,70.5
			c-0.5,0.4-1.1,1.1-1.1,1.8v29.7c-1.1-0.5-2.5-0.9-4-0.9c-1.1,0-2,0.2-3.1,0.4c-4.9,1.3-8.1,5.2-7.2,9.2c0.7,2.9,3.6,4.9,7.6,4.9
			l0,0c1.1,0,2-0.2,3.1-0.4c4.5-1.3,7.6-4.7,7.4-8.3c0-0.2,0-0.2,0-0.4V80.8l9.6-3.1c0.9-0.4,1.4-1.3,1.1-2.3
			C895,74.5,893.9,74,893,74.3z"/>
	</g>
</g>
</svg>
