<?xml version="1.0" encoding="utf-8"?>
<!-- Generator: Adobe Illustrator 21.0.2, SVG Export Plug-In . SVG Version: 6.00 Build 0)  -->
<svg version="1.1" id="Layer_1" xmlns="http://www.w3.org/2000/svg" xmlns:xlink="http://www.w3.org/1999/xlink" x="0px" y="0px"
	 viewBox="0 0 221 873" style="enable-background:new 0 0 221 873;" xml:space="preserve">
<style type="text/css">
	.st0{fill:#2B2B2B;}
	.st1{fill:#E2E2E2;}
	.st2{fill:#D3D3D3;}
	.st3{fill:#636363;}
	.st4{fill:#302F2D;}
	.st5{fill:#FFFFFF;}
	.st6{fill:none;stroke:#B5B5B5;stroke-width:2;stroke-miterlimit:10;}
</style>
<g>
	<circle class="st0" cx="118.5" cy="49.5" r="29.5"/>
	<polygon class="st1" points="162,213 160,90 41,90 41,213 	"/>
	<ellipse class="st2" cx="160" cy="150.5" rx="19" ry="61.5"/>
	<path class="st3" d="M160.5,43.5h-36c0,0,0-7-8-7h-29c0,0-9,0-9,7h-35c0,0-20,1-20,20v92l66,0.5h70.3c7.1-1.4,20.7-6.6,20.7-26.5
		v-65C180.5,64.5,176.5,43.5,160.5,43.5z M154.5,140.5h-119v-78c0-8,8-7,8-7h35c1,7,9,7,9,7h26c12,0,12-6,12-6h35c0,0,7-1,7,8v72
		C167.5,136.5,169.5,140.5,154.5,140.5z"/>
	<path class="st4" d="M165.3,140.2c0,0-1.3-9.2-5.3-9.2c0,0-3.8,1-4.9,10.5C155.1,141.5,164.6,140.4,165.3,140.2z"/>
	<path class="st4" d="M160,170c0,0-3.8,0-4.9-14h4.9c0,0,3.6-0.2,5.3-1.6C165.3,154.4,166,171,160,170z"/>
	<path class="st5" d="M163,89c0,0-21-7-21,79v93l-9,11l-10-11l-10,13l-10-11l-9,11l-10-12l-9,12l-11-12l-10,10l-9-10l-10,10l-10-11
		V126.3c0,0,3-32.3,17-37.3H163z"/>
	<g>
		<polygon class="st5" points="25,380 35,393 45,380 54,393 64,380 75,393 84,380 94,393 103,380 113,393 123,380 133,393 142,380 
			142,260 25,260 		"/>
		<line class="st6" x1="25" y1="261" x2="31.3" y2="261"/>
		<line class="st6" x1="35" y1="261" x2="41.3" y2="261"/>
		<line class="st6" x1="45" y1="261" x2="51.3" y2="261"/>
		<line class="st6" x1="55" y1="261" x2="61.3" y2="261"/>
		<line class="st6" x1="65" y1="261" x2="71.3" y2="261"/>
		<line class="st6" x1="75" y1="261" x2="81.3" y2="261"/>
		<line class="st6" x1="85" y1="261" x2="91.3" y2="261"/>
		<line class="st6" x1="95" y1="261" x2="101.3" y2="261"/>
		<line class="st6" x1="105" y1="261" x2="111.3" y2="261"/>
		<line class="st6" x1="115" y1="261" x2="121.3" y2="261"/>
		<line class="st6" x1="125" y1="261" x2="131.3" y2="261"/>
		<line class="st6" x1="135" y1="261" x2="141.3" y2="261"/>
	</g>
	<g>
		<polygon class="st5" points="25,501 35,514 45,501 54,514 64,501 75,514 84,501 94,514 103,501 113,514 123,501 133,514 142,501 
			142,381 25,381 		"/>
		<line class="st6" x1="25" y1="382" x2="31.3" y2="382"/>
		<line class="st6" x1="35" y1="382" x2="41.3" y2="382"/>
		<line class="st6" x1="45" y1="382" x2="51.3" y2="382"/>
		<line class="st6" x1="55" y1="382" x2="61.3" y2="382"/>
		<line class="st6" x1="65" y1="382" x2="71.3" y2="382"/>
		<line class="st6" x1="75" y1="382" x2="81.3" y2="382"/>
		<line class="st6" x1="85" y1="382" x2="91.3" y2="382"/>
		<line class="st6" x1="95" y1="382" x2="101.3" y2="382"/>
		<line class="st6" x1="105" y1="382" x2="111.3" y2="382"/>
		<line class="st6" x1="115" y1="382" x2="121.3" y2="382"/>
		<line class="st6" x1="125" y1="382" x2="131.3" y2="382"/>
		<line class="st6" x1="135" y1="382" x2="141.3" y2="382"/>
	</g>
	<g>
		<polygon class="st5" points="25,618 35,631 45,618 54,631 64,618 75,631 84,618 94,631 103,618 113,631 123,618 133,631 142,618 
			142,498 25,498 		"/>
		<line class="st6" x1="25" y1="499" x2="31.3" y2="499"/>
		<line class="st6" x1="35" y1="499" x2="41.3" y2="499"/>
		<line class="st6" x1="45" y1="499" x2="51.3" y2="499"/>
		<line class="st6" x1="55" y1="499" x2="61.3" y2="499"/>
		<line class="st6" x1="65" y1="499" x2="71.3" y2="499"/>
		<line class="st6" x1="75" y1="499" x2="81.3" y2="499"/>
		<line class="st6" x1="85" y1="499" x2="91.3" y2="499"/>
		<line class="st6" x1="95" y1="499" x2="101.3" y2="499"/>
		<line class="st6" x1="105" y1="499" x2="111.3" y2="499"/>
		<line class="st6" x1="115" y1="499" x2="121.3" y2="499"/>
		<line class="st6" x1="125" y1="499" x2="131.3" y2="499"/>
		<line class="st6" x1="135" y1="499" x2="141.3" y2="499"/>
	</g>
	<g>
		<polygon class="st5" points="25,738 35,751 45,738 54,751 64,738 75,751 84,738 94,751 103,738 113,751 123,738 133,751 142,738 
			142,618 25,618 		"/>
		<line class="st6" x1="25" y1="619" x2="31.3" y2="619"/>
		<line class="st6" x1="35" y1="619" x2="41.3" y2="619"/>
		<line class="st6" x1="45" y1="619" x2="51.3" y2="619"/>
		<line class="st6" x1="55" y1="619" x2="61.3" y2="619"/>
		<line class="st6" x1="65" y1="619" x2="71.3" y2="619"/>
		<line class="st6" x1="75" y1="619" x2="81.3" y2="619"/>
		<line class="st6" x1="85" y1="619" x2="91.3" y2="619"/>
		<line class="st6" x1="95" y1="619" x2="101.3" y2="619"/>
		<line class="st6" x1="105" y1="619" x2="111.3" y2="619"/>
		<line class="st6" x1="115" y1="619" x2="121.3" y2="619"/>
		<line class="st6" x1="125" y1="619" x2="131.3" y2="619"/>
		<line class="st6" x1="135" y1="619" x2="141.3" y2="619"/>
	</g>
	<g>
		<path class="st5" d="M25.7,859l6.4,8.3c1.2,1.6,3.5,1.9,5.1,0.7c0.2-0.2,0.5-0.4,0.7-0.7l4.1-5.3c1.2-1.6,3.5-1.9,5.1-0.7
			c0.3,0.2,0.6,0.5,0.8,0.8l3.3,4.8c1.1,1.7,3.4,2.1,5.1,0.9c0.3-0.2,0.6-0.5,0.8-0.8l4.2-5.5c1.2-1.6,3.5-1.9,5.1-0.7
			c0.2,0.2,0.4,0.3,0.6,0.5l5,5.9c1.3,1.5,3.6,1.7,5.1,0.4c0.2-0.2,0.5-0.4,0.6-0.7l3.5-5c1.1-1.7,3.4-2.1,5.1-0.9
			c0.3,0.2,0.6,0.5,0.8,0.8l3.9,5.1c1.2,1.6,3.5,1.9,5.1,0.7c0.3-0.2,0.6-0.5,0.8-0.8l3.3-4.8c1.1-1.7,3.4-2.1,5.1-0.9
			c0.3,0.2,0.6,0.5,0.8,0.8l4.1,5.3c1.2,1.6,3.5,1.9,5.1,0.7c0.2-0.2,0.5-0.4,0.7-0.7l4.2-5.5c1.2-1.6,3.5-1.9,5.1-0.7
			c0.2,0.2,0.5,0.4,0.7,0.7l4.1,5.3c1.2,1.6,3.5,1.9,5.1,0.7c0.3-0.2,0.6-0.5,0.8-0.8l5.5-8c0.4-0.6,0.6-1.3,0.6-2.1V741.6
			c0-2-1.6-3.6-3.6-3.6c0,0,0,0,0,0H28.6c-2,0-3.6,1.6-3.6,3.6l0,0v115.1C25,857.6,25.2,858.4,25.7,859z"/>
		<line class="st6" x1="25" y1="739" x2="31.3" y2="739"/>
		<line class="st6" x1="35" y1="739" x2="41.3" y2="739"/>
		<line class="st6" x1="45" y1="739" x2="51.3" y2="739"/>
		<line class="st6" x1="55" y1="739" x2="61.3" y2="739"/>
		<line class="st6" x1="65" y1="739" x2="71.3" y2="739"/>
		<line class="st6" x1="75" y1="739" x2="81.3" y2="739"/>
		<line class="st6" x1="85" y1="739" x2="91.3" y2="739"/>
		<line class="st6" x1="95" y1="739" x2="101.3" y2="739"/>
		<line class="st6" x1="105" y1="739" x2="111.3" y2="739"/>
		<line class="st6" x1="115" y1="739" x2="121.3" y2="739"/>
		<line class="st6" x1="125" y1="739" x2="131.3" y2="739"/>
		<line class="st6" x1="135" y1="739" x2="141.3" y2="739"/>
	</g>
</g>
</svg>
