<svg xmlns="http://www.w3.org/2000/svg" viewBox="0 0 118 464.5">
  <defs>
    <style>
      .cls-1 {
        opacity: 0.15;
      }

      .cls-2 {
        fill: #cecece;
      }

      .cls-3 {
        fill: #6c94b7;
      }

      .cls-4 {
        fill: #a8cbe5;
      }

      .cls-5 {
        fill: #3a445e;
      }

      .cls-6 {
        fill: #efefef;
      }

      .cls-7 {
        fill: none;
        stroke: #3a445e;
        stroke-miterlimit: 10;
        opacity: 0.41;
      }
    </style>
  </defs>
  <title>wcborstel</title>
  <g id="Layer_2" data-name="Layer 2">
    <g class="cls-1">
      <path d="M60,464s-10,1-10-18V350l3-19,.5-5.5v-194h-8v-7h2l-2-12h37l-2,12h2v6h-10v200l3,18v98s2,17-11,18Z"/>
      <path d="M47.11,112.5S44,38,66,38s14.89,74.5,14.89,74.5Z"/>
      <path d="M50,355.89s9,8.88,25.5,0c0,0,2.36,73.12-1.5,100.11-1,7-6,7.2-10,8-5,1-8.84-1.93-11-5C46.72,450.07,50,428,50,355.89Z"/>
    </g>
    <rect class="cls-2" x="4" y="89" width="108" height="13" rx="6.5"/>
    <rect class="cls-2" x="4" y="70" width="108" height="13" rx="6.5"/>
    <path class="cls-2" d="M62.41,69.72l49-11.39c3.55-.82,5.92-3.67,5.29-6.36s-4-4.2-7.56-3.38L60.14,60Z"/>
    <path class="cls-2" d="M65.34,67.28l37.14-33.9c2.7-2.46,3.37-6.11,1.51-8.15s-5.56-1.7-8.25.76L58.6,59.89Z"/>
    <path class="cls-2" d="M59.27,62.24l21.61-45.4c1.57-3.29.82-6.93-1.67-8.11s-5.79.52-7.36,3.81L50.24,57.94Z"/>
    <path class="cls-2" d="M65.24,62.52,48.36,15.16c-1.22-3.44-4.33-5.47-6.93-4.54s-3.71,4.46-2.49,7.89L55.82,65.88Z"/>
    <path class="cls-2" d="M66.17,61.53,27.23,29.72c-2.83-2.31-6.53-2.44-8.28-.3s-.87,5.74,1.95,8l39,31.8Z"/>
    <path class="cls-2" d="M62.84,59.59,13.71,48.87c-3.57-.78-6.93.78-7.52,3.48S8,57.86,11.58,58.64L60.7,69.36Z"/>
  </g>
  <g id="Layer_1" data-name="Layer 1">
    <path class="cls-3" d="M54,462s-10,1-10-18V348l3-19,.5-5.5v-194h-8v-7h2l-2-12h37l-2,12h2v6h-10v200l3,18v98s2,17-11,18Z"/>
    <path class="cls-4" d="M41.11,110.5S38,36,60,36s14.89,74.5,14.89,74.5Z"/>
    <rect class="cls-4" x="39" y="122" width="38" height="7"/>
    <path class="cls-5" d="M44,353.89s9,8.88,25.5,0c0,0,2.36,73.12-1.5,100.11-1,7-6,7.2-10,8-5,1-8.84-1.93-11-5C40.72,448.07,44,426,44,353.89Z"/>
    <rect class="cls-6" y="99" width="118" height="13" rx="6.5"/>
    <rect class="cls-6" y="80" width="118" height="13" rx="6.5"/>
    <rect class="cls-6" y="61" width="118" height="13" rx="6.5"/>
    <path class="cls-6" d="M60.58,54.34,16.78,35.1c-3.17-1.4-6.65-.48-7.76,2s.56,5.71,3.74,7.1L56.55,63.49Z"/>
    <path class="cls-6" d="M61.11,63.09l47.07-17.68c3.42-1.28,5.4-4.42,4.43-7s-4.53-3.64-7.94-2.35L57.6,53.73Z"/>
    <path class="cls-6" d="M62.62,56l-31-38.63c-2.25-2.8-5.82-3.67-8-1.94s-2.08,5.4.16,8.2l31,38.62Z"/>
    <path class="cls-6" d="M59.27,63.4,93.21,26.14c2.46-2.7,2.8-6.39.76-8.25s-5.69-1.18-8.15,1.52L51.87,56.67Z"/>
    <path class="cls-6" d="M64,53.83,61.82,6.05c-.16-3.47-2.53-6.17-5.28-6s-4.87,3.05-4.71,6.51l2.22,47.78Z"/>
    <line class="cls-7" x1="53.5" y1="136" x2="54.5" y2="324.5"/>
    <line class="cls-7" x1="59.5" y1="136" x2="60.5" y2="324.5"/>
  </g>
</svg>
