<svg id="Layer_1" data-name="Layer 1" xmlns="http://www.w3.org/2000/svg" viewBox="0 0 273.52 528">
  <defs>
    <style>
      .cls-1, .cls-4 {
        fill: #eaeaea;
        stroke: #f9f9f9;
      }

      .cls-1, .cls-3, .cls-4 {
        stroke-miterlimit: 10;
      }

      .cls-2 {
        opacity: 0.05;
      }

      .cls-3 {
        fill: #f4f4f4;
        stroke: #fcfcfc;
        stroke-width: 3px;
      }

      .cls-4 {
        stroke-width: 4px;
      }

      .cls-5 {
        fill: #f2f2f2;
      }
    </style>
  </defs>
  <title>wcpot</title>
  <path class="cls-1" d="M27.08,82.5l218.36-1c14.63,0,26.34,20.12,25.8,37.11l-7.31,188.26c-.17,5.38-4,9.63-8.6,9.63H17.18c-4.62,0-8.42-4.25-8.6-9.63L1.28,118.61C.74,101.62,12.44,82.5,27.08,82.5Z"/>
  <path class="cls-2" d="M245.44,81.5l-218.36,1a17.36,17.36,0,0,0-5.46.9l196.82-.9c14.63,0,26.34,20.12,25.8,37.11l-7.31,188.26a10.16,10.16,0,0,1-4.86,8.63h23.26c4.63,0,8.43-4.25,8.6-9.63l7.31-188.26C271.78,101.62,260.07,81.5,245.44,81.5Z"/>
  <path class="cls-3" d="M12.26,181c9.22-46.12,14-101.62,34.5-135.5,19.46-32.23,53.9-44,89-44,41.62,0,70.86,11.77,90,44C245.88,79.38,255,134.88,264.26,181c17.55,87.73-51.44,162-126,162S-5.29,268.73,12.26,181Z"/>
  <path class="cls-2" d="M264.26,181C255,134.88,245.88,79.38,225.76,45.5c-19.14-32.23-48.38-44-90-44l-2.07,0c4.64.21,9.31.65,13.95,1.31,41.22,5.81,68.53,21.55,83,56.14,15.19,36.36,16.5,92.59,19.19,139.55,4.59,80.18-58.34,139.86-124.67,143.71a115,115,0,0,0,13.13.77C212.82,343,281.81,268.73,264.26,181Z"/>
  <polygon class="cls-4" points="89.03 330.14 184.07 330.14 190.25 424 209.23 516.36 63.88 516.36 81.86 424 89.03 330.14"/>
  <polygon class="cls-2" points="179.76 336.69 181.14 430.74 194.23 516.36 209.23 516.36 190.25 424 184.07 330.14 89.03 330.14 88.88 332.05 179.76 336.69"/>
  <path class="cls-5" d="M44.76,506.5h180a10,10,0,0,1,10,10V528a0,0,0,0,1,0,0h-200a0,0,0,0,1,0,0V516.5A10,10,0,0,1,44.76,506.5Z"/>
  <path class="cls-3" d="M1.63,278c5.63,66.46,67.06,119,134.63,119s130-52.54,135.62-119Z"/>
  <path class="cls-2" d="M110.09,280l143.34,13.67c-10.35,57-69.2,98.65-128.38,103.23,1.62.06,3.25.1,4.87.1,66.43,0,135.68-51.66,141.21-117Z"/>
</svg>
