<?xml version="1.0" encoding="utf-8"?>
<!-- Generator: Adobe Illustrator 23.0.1, SVG Export Plug-In . SVG Version: 6.00 Build 0)  -->
<svg version="1.1" id="Layer_1" xmlns="http://www.w3.org/2000/svg" xmlns:xlink="http://www.w3.org/1999/xlink" x="0px" y="0px"
	 width="85.5px" height="79.8px" viewBox="0 0 85.5 79.8" style="enable-background:new 0 0 85.5 79.8;" xml:space="preserve">
<style type="text/css">
	.st0{fill:none;stroke:#777777;stroke-width:3;stroke-miterlimit:10;}
</style>
<path class="st0" d="M20.8,23.4c0,0,1.3-16.4,19.6-19.4c0,0,15.8-2.4,22.7,13.4c0,0,5.6,10.4-3.2,22.5c0,0-4.3,5.1-8.5,6.4
	c0,0-4.4,1-5.8,7.8l-0.1,7.8c0,0,0.3,2.1-2.2,2.8c0,0-3.2,0.4-3.3-2l-0.1-7.7c0,0-0.4-7.3,6.6-12.3c0,0,8.7-2.3,11.8-11.3
	c0,0,4.5-10.2-5.5-18.4c0,0-8.5-7.1-19-0.8c0,0-7.4,4.8-7.5,12.8c0,0,0.6,3.3-2.8,3.8C23.5,28.8,19.8,29.1,20.8,23.4z"/>
<circle class="st0" cx="42.8" cy="73.1" r="2.5"/>
</svg>
