<?xml version="1.0" encoding="utf-8"?>
<!-- Generator: Adobe Illustrator 23.0.1, SVG Export Plug-In . SVG Version: 6.00 Build 0)  -->
<svg version="1.1" id="Layer_1" xmlns="http://www.w3.org/2000/svg" xmlns:xlink="http://www.w3.org/1999/xlink" x="0px" y="0px"
	 width="60px" height="60px" viewBox="0 0 60 60" style="enable-background:new 0 0 60 60;" xml:space="preserve">
<style type="text/css">
	.st0{fill:none;stroke:#777777;stroke-width:3;stroke-linecap:round;stroke-linejoin:round;stroke-miterlimit:10;}
</style>
<g>
	<path id="Facebook_Places_3_" class="st0" d="M48.4,15.8c-0.2-0.8-0.6-1.6-0.9-2.2C44,5,36.1,1.9,29.7,1.9
		c-8.4,0-17.8,5.7-19.1,17.5v2.4c0,0.1,0,1,0.1,1.5c0.7,5.6,5.1,11.5,8.4,17.2c3.5,5.9,7.2,11.8,10.9,17.7c2.2-3.9,4.5-7.8,6.7-11.5
		c0.6-1.1,1.3-2.2,1.9-3.3c0.4-0.7,1.2-1.4,1.6-2c3.5-6.4,9.2-13,9.2-19.4v-2.6C49.4,18.5,48.5,16,48.4,15.8z M29.9,28
		c-2.5,0-5.2-1.3-6.6-4.7c-0.2-0.6-0.2-1.6-0.2-1.7V20c0-4.4,3.8-6.4,7-6.4c4,0,7.1,3.2,7.1,7.2C37.2,24.8,33.9,28,29.9,28z"/>
</g>
</svg>
