<?xml version="1.0" encoding="utf-8"?>
<!-- Generator: Adobe Illustrator 23.0.1, SVG Export Plug-In . SVG Version: 6.00 Build 0)  -->
<svg version="1.1" id="Layer_1" xmlns="http://www.w3.org/2000/svg" xmlns:xlink="http://www.w3.org/1999/xlink" x="0px" y="0px"
	 width="50px" height="50px" viewBox="0 0 50 50" style="enable-background:new 0 0 50 50;" xml:space="preserve">
<style type="text/css">
	.st0{fill:#396488;}
</style>
<path class="st0" d="M50,3.1c0-2.1-2.1-3.6-4.1-3L14.7,9.4c-1.3,0.4-2.2,1.6-2.2,3v25.5c-1-0.2-2-0.4-3.1-0.4
	c-5.2,0-9.4,2.8-9.4,6.3S4.2,50,9.4,50s9.4-2.8,9.4-6.3V20.9l25-7.3v18c-1-0.2-2-0.4-3.1-0.4c-5.2,0-9.4,2.8-9.4,6.3
	s4.2,6.3,9.4,6.3S50,41,50,37.5L50,3.1L50,3.1z"/>
</svg>
