<?xml version="1.0" encoding="utf-8"?>
<!-- Generator: Adobe Illustrator 21.0.2, SVG Export Plug-In . SVG Version: 6.00 Build 0)  -->
<svg version="1.1" id="Layer_1" xmlns="http://www.w3.org/2000/svg" xmlns:xlink="http://www.w3.org/1999/xlink" x="0px" y="0px"
	 viewBox="0 0 32.5 50" style="enable-background:new 0 0 32.5 50;" xml:space="preserve">
<style type="text/css">
	.st0{fill:#0C426D;}
</style>
<title>music_note2</title>
<path class="st0" d="M16,38.2V0h2c0.1,3.4,1.3,6.7,3.6,9.2c0,0,9.3,6.7,10.2,11.3c0,0,3.5,5.6-3.9,16.9h-1.3c0,0,4.5-6.7,4.1-12.6
	c0,0-1.3-9.8-12.8-11.5v29c0,0-1.3,6.3-10.8,7.6c0,0-5.4,0.4-6.9-3.3c0,0-0.9-4.8,5.4-7.4C5.5,39.4,10.9,36.5,16,38.2z"/>
</svg>
