<?xml version="1.0" encoding="utf-8"?>
<!-- Generator: Adobe Illustrator 23.0.1, SVG Export Plug-In . SVG Version: 6.00 Build 0)  -->
<svg version="1.1" id="Layer_1" xmlns="http://www.w3.org/2000/svg" xmlns:xlink="http://www.w3.org/1999/xlink" x="0px" y="0px"
	 width="32px" height="32px" viewBox="0 0 32 32" style="enable-background:new 0 0 32 32;" xml:space="preserve">
<style type="text/css">
	.st0{fill:#777777;}
</style>
<path id="music" class="st0" d="M27.4,4.4c-0.4-0.3-0.7-0.4-1.1-0.4c-0.1,0-0.2,0-0.3,0L11.1,6.6c-0.9,0.2-1.5,0.9-1.5,1.8v1.8V11
	v12.5c-0.9-0.7-2-1.1-3.3-1.1c-0.7,0-1.5,0.1-2.2,0.4c-1.7,0.5-3,1.7-3.7,3.1c-0.5,1.1-0.6,2.3-0.2,3.2c0.6,1.8,2.5,3,4.8,3
	c0.7,0,1.5-0.1,2.2-0.4c1.7-0.5,3-1.7,3.7-3.1c0.3-0.6,0.4-1.2,0.4-1.8l0,0v-14c0.1,0,0.2,0,0.3,0l14.6-2.6v10.6
	c-0.9-0.6-2-1.1-3.3-1.1c-0.8,0-1.5,0.1-2.2,0.4c-1.7,0.5-3,1.7-3.7,3.1c-0.5,1.1-0.6,2.3-0.2,3.2c0.7,1.8,2.5,3,4.8,3
	c0.8,0,1.5-0.1,2.2-0.4c1.7-0.5,3-1.7,3.7-3.1c0.3-0.6,0.4-1.2,0.4-1.8l0,0V8.3V7.4V5.7C28.1,5.2,27.8,4.6,27.4,4.4z M6.7,30
	c-2.1,0.7-4.3,0-4.8-1.5c-0.6-1.6,0.7-3.3,2.7-4c2.1-0.7,4.3,0,4.8,1.5C10.1,27.4,8.9,29.3,6.7,30z M23.4,27.4
	c-2.1,0.7-4.3,0-4.8-1.5c-0.6-1.6,0.7-3.3,2.7-4c2.1-0.7,4.3,0,4.8,1.5C26.7,24.8,25.4,26.7,23.4,27.4z M26.3,8.3L11.4,11v-0.9V8.3
	l14.9-2.6v1.8V8.3z"/>
</svg>
