<svg id="Layer_1" data-name="Layer 1" xmlns="http://www.w3.org/2000/svg" viewBox="0 0 157.78 851.85">
  <defs>
    <style>
      .cls-1 {
        fill: #2b2b2b;
      }

      .cls-2 {
        fill: #e2e2e2;
      }

      .cls-3 {
        fill: #d3d3d3;
      }

      .cls-4 {
        fill: #636363;
      }

      .cls-5 {
        fill: #302f2d;
      }

      .cls-6, .cls-7 {
        fill: #fff;
      }

      .cls-7 {
        stroke: #b5b5b5;
        stroke-width: 2px;
      }

      .cls-7, .cls-8 {
        stroke-miterlimit: 10;
      }

      .cls-8 {
        fill: none;
        stroke: #e0e0e0;
      }
    </style>
  </defs>
  <title>navigation</title>
  <circle class="cls-1" cx="95.78" cy="29.5" r="29.5"/>
  <polygon class="cls-2" points="139.28 193 137.28 70 18.28 70 18.28 193 139.28 193"/>
  <ellipse class="cls-3" cx="137.28" cy="130.5" rx="19" ry="61.5"/>
  <path class="cls-4" d="M137.78,23.5h-36s0-7-8-7h-29s-9,0-9,7h-35s-20,1-20,20v92l66,.5h70.3c7.15-1.38,20.7-6.62,20.7-26.5v-65S153.78,23.5,137.78,23.5Zm-6,97h-119v-78c0-8,8-7,8-7h35c1,7,9,7,9,7h26c12,0,12-6,12-6h35s7-1,7,8v72S146.78,120.5,131.78,120.5Z"/>
  <path class="cls-5" d="M142.57,120.2s-1.29-9.2-5.29-9.2c0,0-3.75,1-4.87,10.5C132.41,121.5,141.87,120.39,142.57,120.2Z"/>
  <path class="cls-5" d="M137.28,150s-3.75,0-4.87-14h4.87s3.59-.22,5.29-1.61C142.57,134.39,143.28,151,137.28,150Z"/>
  <path class="cls-6" d="M140.28,69s-21-7-21,79v93l-9,11-10-11-10,13-10-11-9,11-10-12-9,12-11-12-10,10-9-10-10,10-10-11V106.31S5.28,74,19.28,69Z"/>
  <g>
    <polygon class="cls-6" points="2.28 360 12.28 373 22.28 360 31.28 373 41.28 360 52.28 373 61.28 360 71.28 373 80.28 360 90.28 373 100.28 360 110.28 373 119.28 360 119.28 240 2.28 240 2.28 360"/>
    <line class="cls-7" x1="2.28" y1="241" x2="8.59" y2="241"/>
    <line class="cls-7" x1="12.28" y1="241" x2="18.59" y2="241"/>
    <line class="cls-7" x1="22.28" y1="241" x2="28.59" y2="241"/>
    <line class="cls-7" x1="32.28" y1="241" x2="38.59" y2="241"/>
    <line class="cls-7" x1="42.28" y1="241" x2="48.59" y2="241"/>
    <line class="cls-7" x1="52.28" y1="241" x2="58.59" y2="241"/>
    <line class="cls-7" x1="62.28" y1="241" x2="68.59" y2="241"/>
    <line class="cls-7" x1="72.28" y1="241" x2="78.59" y2="241"/>
    <line class="cls-7" x1="82.28" y1="241" x2="88.59" y2="241"/>
    <line class="cls-7" x1="92.28" y1="241" x2="98.59" y2="241"/>
    <line class="cls-7" x1="102.28" y1="241" x2="108.59" y2="241"/>
    <line class="cls-7" x1="112.28" y1="241" x2="118.59" y2="241"/>
  </g>
  <g>
    <polygon class="cls-6" points="2.28 481 12.28 494 22.28 481 31.28 494 41.28 481 52.28 494 61.28 481 71.28 494 80.28 481 90.28 494 100.28 481 110.28 494 119.28 481 119.28 361 2.28 361 2.28 481"/>
    <line class="cls-7" x1="2.28" y1="362" x2="8.59" y2="362"/>
    <line class="cls-7" x1="12.28" y1="362" x2="18.59" y2="362"/>
    <line class="cls-7" x1="22.28" y1="362" x2="28.59" y2="362"/>
    <line class="cls-7" x1="32.28" y1="362" x2="38.59" y2="362"/>
    <line class="cls-7" x1="42.28" y1="362" x2="48.59" y2="362"/>
    <line class="cls-7" x1="52.28" y1="362" x2="58.59" y2="362"/>
    <line class="cls-7" x1="62.28" y1="362" x2="68.59" y2="362"/>
    <line class="cls-7" x1="72.28" y1="362" x2="78.59" y2="362"/>
    <line class="cls-7" x1="82.28" y1="362" x2="88.59" y2="362"/>
    <line class="cls-7" x1="92.28" y1="362" x2="98.59" y2="362"/>
    <line class="cls-7" x1="102.28" y1="362" x2="108.59" y2="362"/>
    <line class="cls-7" x1="112.28" y1="362" x2="118.59" y2="362"/>
  </g>
  <g>
    <polygon class="cls-6" points="2.28 598 12.28 611 22.28 598 31.28 611 41.28 598 52.28 611 61.28 598 71.28 611 80.28 598 90.28 611 100.28 598 110.28 611 119.28 598 119.28 478 2.28 478 2.28 598"/>
    <line class="cls-7" x1="2.28" y1="479" x2="8.59" y2="479"/>
    <line class="cls-7" x1="12.28" y1="479" x2="18.59" y2="479"/>
    <line class="cls-7" x1="22.28" y1="479" x2="28.59" y2="479"/>
    <line class="cls-7" x1="32.28" y1="479" x2="38.59" y2="479"/>
    <line class="cls-7" x1="42.28" y1="479" x2="48.59" y2="479"/>
    <line class="cls-7" x1="52.28" y1="479" x2="58.59" y2="479"/>
    <line class="cls-7" x1="62.28" y1="479" x2="68.59" y2="479"/>
    <line class="cls-7" x1="72.28" y1="479" x2="78.59" y2="479"/>
    <line class="cls-7" x1="82.28" y1="479" x2="88.59" y2="479"/>
    <line class="cls-7" x1="92.28" y1="479" x2="98.59" y2="479"/>
    <line class="cls-7" x1="102.28" y1="479" x2="108.59" y2="479"/>
    <line class="cls-7" x1="112.28" y1="479" x2="118.59" y2="479"/>
  </g>
  <g>
    <polygon class="cls-6" points="2.28 718 12.28 731 22.28 718 31.28 731 41.28 718 52.28 731 61.28 718 71.28 731 80.28 718 90.28 731 100.28 718 110.28 731 119.28 718 119.28 598 2.28 598 2.28 718"/>
    <line class="cls-7" x1="2.28" y1="599" x2="8.59" y2="599"/>
    <line class="cls-7" x1="12.28" y1="599" x2="18.59" y2="599"/>
    <line class="cls-7" x1="22.28" y1="599" x2="28.59" y2="599"/>
    <line class="cls-7" x1="32.28" y1="599" x2="38.59" y2="599"/>
    <line class="cls-7" x1="42.28" y1="599" x2="48.59" y2="599"/>
    <line class="cls-7" x1="52.28" y1="599" x2="58.59" y2="599"/>
    <line class="cls-7" x1="62.28" y1="599" x2="68.59" y2="599"/>
    <line class="cls-7" x1="72.28" y1="599" x2="78.59" y2="599"/>
    <line class="cls-7" x1="82.28" y1="599" x2="88.59" y2="599"/>
    <line class="cls-7" x1="92.28" y1="599" x2="98.59" y2="599"/>
    <line class="cls-7" x1="102.28" y1="599" x2="108.59" y2="599"/>
    <line class="cls-7" x1="112.28" y1="599" x2="118.59" y2="599"/>
  </g>
  <g>
    <polygon class="cls-6" points="2.28 838 12.28 851 22.28 838 31.28 851 41.28 838 52.28 851 61.28 838 71.28 851 80.28 838 90.28 851 100.28 838 110.28 851 119.28 838 119.28 718 2.28 718 2.28 838"/>
    <line class="cls-7" x1="2.28" y1="719" x2="8.59" y2="719"/>
    <line class="cls-7" x1="12.28" y1="719" x2="18.59" y2="719"/>
    <line class="cls-7" x1="22.28" y1="719" x2="28.59" y2="719"/>
    <line class="cls-7" x1="32.28" y1="719" x2="38.59" y2="719"/>
    <line class="cls-7" x1="42.28" y1="719" x2="48.59" y2="719"/>
    <line class="cls-7" x1="52.28" y1="719" x2="58.59" y2="719"/>
    <line class="cls-7" x1="62.28" y1="719" x2="68.59" y2="719"/>
    <line class="cls-7" x1="72.28" y1="719" x2="78.59" y2="719"/>
    <line class="cls-7" x1="82.28" y1="719" x2="88.59" y2="719"/>
    <line class="cls-7" x1="92.28" y1="719" x2="98.59" y2="719"/>
    <line class="cls-7" x1="102.28" y1="719" x2="108.59" y2="719"/>
    <line class="cls-7" x1="112.28" y1="719" x2="118.59" y2="719"/>
  </g>
  <g>
    <path class="cls-8" d="M1.94,108.87l-.09.73C1.88,109.35,1.91,109.1,1.94,108.87Z"/>
    <path class="cls-8" d="M1.52,112.46c-.06.5-.12,1-.17,1.43Z"/>
    <path class="cls-8" d="M2,108.33l-.06.54Z"/>
    <path class="cls-8" d="M1.58,112l-.06.5Z"/>
    <path class="cls-8" d="M1.69,111c0,.33-.08.66-.11,1C1.62,111.63,1.65,111.3,1.69,111Z"/>
    <path class="cls-8" d="M2.26,106.11l0,.22Z"/>
    <path class="cls-8" d="M2.14,107.16c-.05.4-.09.79-.14,1.17C2.06,107.89,2.1,107.5,2.14,107.16Z"/>
    <path class="cls-8" d="M2.28,106l0,.11Z"/>
    <path class="cls-8" d="M2.24,106.33l-.08.66Z"/>
    <path class="cls-8" d="M2.16,107l0,.17Z"/>
    <path class="cls-8" d="M1.85,109.6c-.05.44-.1.9-.16,1.38Z"/>
    <path class="cls-8" d="M1.35,113.89c-.05.46-.11.91-.16,1.36C1.24,114.82,1.29,114.37,1.35,113.89Z"/>
    <path class="cls-8" d="M19.28,69s-13,3-17,37V838l10,13,10-13,9,13,10-13,11,13,9-13,10,13,9-13,10,13,10-13,10,13,9-13V165.91l.14-29.91s.2-65,19-67H19.28Z"/>
    <path class="cls-8" d="M138.78,69h0Z"/>
    <path class="cls-8" d="M.55,120.71l0,.29Z"/>
    <path class="cls-8" d="M138.45,69l.18,0Z"/>
    <path class="cls-8" d="M.51,121c0,.15,0,.14,0,0Z"/>
    <path class="cls-8" d="M.6,120.23l0,.48C.56,120.58.58,120.42.6,120.23Z"/>
    <path class="cls-8" d="M.9,117.68q-.06.54-.12,1Z"/>
    <path class="cls-8" d="M1.19,115.25c-.11.94-.21,1.74-.29,2.43C1,116.93,1.09,116.11,1.19,115.25Z"/>
    <path class="cls-8" d="M.78,118.7c0,.32-.07.6-.1.85Z"/>
    <path class="cls-8" d="M.68,119.55l-.08.68Z"/>
  </g>
</svg>
