<?xml version="1.0" encoding="utf-8"?>
<!-- Generator: Adobe Illustrator 21.0.2, SVG Export Plug-In . SVG Version: 6.00 Build 0)  -->
<svg version="1.1" id="Layer_1" xmlns="http://www.w3.org/2000/svg" xmlns:xlink="http://www.w3.org/1999/xlink" x="0px" y="0px"
	 viewBox="0 0 338.3 400" style="enable-background:new 0 0 338.3 400;" xml:space="preserve">
<style type="text/css">
	.st0{fill:#0C426D;}
</style>
<title>toilet</title>
<path class="st0" d="M226,400l-4.6-88.1c0,0-2-20,18.3-26.3c0,0,42.6-7.4,46.2-32.6s2.5-18.9,2.5-18.9l7.6-0.6v-28l19.8-2.3
	c0,0,7.1,8,11.7-33.8s11.7-118.5,10.6-144.3S318.4,0,318.4,0h-78.2c0,0-27.9,0.6-27.9,32.6s6.1,129.9,15.2,172.8l-7.6,0.6
	c0,0,2.5-16-22.3-20.6c0,0-77.7-16-144.7-4c0,0-53.8,0-52.8,24.6h10.7c0,0-10.7,64.7,72.6,95l4.6,99H226z"/>
</svg>
