<svg id="Layer_1" data-name="Layer 1" xmlns="http://www.w3.org/2000/svg" viewBox="0 0 338.29 400">
  <defs>
    <style>
      .cls-1 {
        fill: #396488;
      }
    </style>
  </defs>
  <title>toilet</title>
  <path class="cls-1" d="M226,400l-4.57-88.13s-2-20,18.28-26.32c0,0,42.65-7.44,46.21-32.62s2.54-18.88,2.54-18.88l7.61-.57v-28l19.81-2.29s7.1,8,11.67-33.76S339.2,50.93,338.19,25.18,318.38,0,318.38,0H240.19s-27.93.57-27.93,32.62,6.09,129.9,15.23,172.82l-7.61.57s2.54-16-22.34-20.6c0,0-77.69-16-144.72-4,0,0-53.82,0-52.81,24.61H10.68S0,270.67,83.29,301l4.57,99Z"/>
</svg>
